<?xml version="1.0" encoding="utf-8"?>
<!-- Generator: Adobe Illustrator 16.0.0, SVG Export Plug-In . SVG Version: 6.00 Build 0)  -->
<!DOCTYPE svg PUBLIC "-//W3C//DTD SVG 1.1//EN" "http://www.w3.org/Graphics/SVG/1.1/DTD/svg11.dtd">
<svg version="1.1" id="Слой_1" xmlns="http://www.w3.org/2000/svg" xmlns:xlink="http://www.w3.org/1999/xlink" x="0px" y="0px"
	 width="7px" height="13px" viewBox="0 0 7 13" enable-background="new 0 0 7 13" xml:space="preserve">
<path fill-rule="evenodd" clip-rule="evenodd" fill="#010202" d="M1.398,6.52c0.07,0.06,0.13,0.11,0.18,0.16
	c1.73,1.75,3.46,3.49,5.18,5.25c0.1,0.11,0.19,0.26,0.23,0.4c0.06,0.23-0.08,0.47-0.29,0.59c-0.2,0.12-0.46,0.1-0.64-0.05
	c-0.061-0.04-0.101-0.091-0.15-0.14L0.268,7.02c-0.36-0.37-0.36-0.669,0-1.029c1.89-1.92,3.77-3.83,5.669-5.74
	c0.101-0.11,0.25-0.19,0.391-0.23c0.23-0.07,0.47,0.07,0.59,0.28c0.12,0.2,0.1,0.46-0.05,0.65c-0.04,0.06-0.091,0.11-0.149,0.16
	L1.558,6.35L1.398,6.52z"/>
</svg>
