<?xml version="1.0" encoding="utf-8"?>
<!-- Generator: Adobe Illustrator 16.0.0, SVG Export Plug-In . SVG Version: 6.00 Build 0)  -->
<!DOCTYPE svg PUBLIC "-//W3C//DTD SVG 1.1//EN" "http://www.w3.org/Graphics/SVG/1.1/DTD/svg11.dtd">
<svg version="1.1" id="Слой_1" xmlns="http://www.w3.org/2000/svg" xmlns:xlink="http://www.w3.org/1999/xlink" x="0px" y="0px"
	 width="37px" height="37px" viewBox="0 0 37 37" enable-background="new 0 0 37 37" xml:space="preserve">
<path fill-rule="evenodd" clip-rule="evenodd" fill="#FFD34F" d="M0,18.5C0,8.28,8.28,0,18.5,0C28.721,0,37,8.28,37,18.5
	C37,28.721,28.721,37,18.5,37C8.28,37,0,28.721,0,18.5z"/>
<path fill-rule="evenodd" clip-rule="evenodd" fill="#010202" d="M8.79,14.184c0.06,0.25,0.09,0.48,0.16,0.69
	c0.59,2.07,1.53,3.96,2.74,5.71c0.78,1.12,1.67,2.13,2.78,2.899c1.15,0.801,2.39,1.221,3.78,1.07c0.19-0.029,0.271-0.08,0.26-0.3
	c-0.01-0.681-0.01-1.36,0.021-2.05c0.039-0.801,0.449-1.16,1.229-1.12c0.351,0.01,0.67,0.159,0.96,0.35
	c0.59,0.37,1.09,0.851,1.57,1.36c0.449,0.49,0.88,1,1.33,1.49c0.18,0.209,0.4,0.31,0.689,0.3c0.58-0.021,1.17,0,1.75,0h0.24
	c-0.04-0.11-0.05-0.19-0.09-0.261c-0.18-0.289-0.34-0.609-0.561-0.879c-0.74-0.891-1.5-1.761-2.26-2.631
	c-0.57-0.65-0.63-1.199-0.15-1.93c0.201-0.3,0.4-0.59,0.59-0.89c0.671-1.06,1.341-2.12,1.871-3.27c0.07-0.17,0.129-0.34,0.199-0.54
	H25.67c-0.58,0-1.17,0.01-1.75,0c-0.229-0.01-0.351,0.08-0.44,0.3c-0.55,1.32-1.199,2.58-2.02,3.75c-0.37,0.53-0.77,1.049-1.34,1.39
	c-0.87,0.51-1.57,0.13-1.6-0.91c-0.031-1.42-0.021-2.85-0.021-4.28v-0.23h-2.91c0.53,0.68,0.67,1.46,0.66,2.29
	c-0.01,0.89,0,1.8,0,2.69c0,0.19-0.01,0.38-0.03,0.57c-0.08,0.93-0.84,1.319-1.58,0.79c-0.28-0.189-0.53-0.45-0.75-0.71
	c-0.82-1.02-1.4-2.19-1.92-3.4c-0.27-0.63-0.5-1.29-0.74-1.94c-0.12-0.31-0.11-0.31-0.44-0.31H9.31H8.79z M7.55,13.904
	c0.12-0.49,0.38-0.84,0.87-0.96c0.17-0.04,0.34-0.05,0.51-0.05c0.65-0.01,1.3-0.01,1.95-0.01c0.77,0.01,1.19,0.32,1.49,1.07
	c0.33,0.86,0.65,1.72,1.02,2.56c0.37,0.87,0.84,1.7,1.41,2.45l0.13,0.149l0.04,0.03v-0.45c0.01-0.69,0.01-1.38,0.04-2.07
	c0.02-0.66-0.09-1.26-0.51-1.78c-0.23-0.28-0.35-0.62-0.29-1c0.08-0.54,0.53-0.95,1.08-0.95c1.12-0.01,2.24-0.01,3.359,0
	c0.65,0.01,1.021,0.42,1.08,1.19c0.041,0.44,0.03,0.88,0.03,1.32l-0.021,2.71l0.011,0.19c0.1-0.1,0.17-0.16,0.229-0.23
	c0.66-0.76,1.16-1.63,1.62-2.53c0.271-0.53,0.511-1.08,0.75-1.62c0.29-0.68,0.78-1.03,1.49-1.04l2.01,0.01
	c0.12,0,0.25,0.01,0.37,0.03c0.689,0.12,1.1,0.7,0.91,1.4c-0.141,0.52-0.34,1.02-0.57,1.5c-0.65,1.3-1.41,2.51-2.22,3.701
	c-0.17,0.25-0.17,0.25,0.03,0.479c0.76,0.88,1.529,1.75,2.27,2.649c0.41,0.5,0.75,1.07,0.91,1.721v0.49
	c-0.3,0.779-0.65,1.02-1.471,1.02c-0.629,0-1.25-0.01-1.879,0c-0.521,0.01-0.971-0.17-1.33-0.55c-0.43-0.46-0.83-0.95-1.26-1.39
	c-0.461-0.461-0.961-0.9-1.44-1.33c-0.11-0.101-0.25-0.15-0.39-0.23c-0.01,0.07-0.021,0.12-0.021,0.16
	c-0.01,0.52-0.05,1.05-0.01,1.561c0.1,1.129-0.38,1.609-1.44,1.729c-1.64,0.2-3.12-0.3-4.48-1.24c-1.3-0.89-2.34-2.06-3.23-3.37
	c-1.27-1.85-2.25-3.85-2.86-6.03c-0.08-0.26-0.13-0.54-0.19-0.8V13.904z"/>
</svg>
