<?xml version="1.0" encoding="utf-8"?>
<!-- Generator: Adobe Illustrator 16.0.0, SVG Export Plug-In . SVG Version: 6.00 Build 0)  -->
<!DOCTYPE svg PUBLIC "-//W3C//DTD SVG 1.1//EN" "http://www.w3.org/Graphics/SVG/1.1/DTD/svg11.dtd">
<svg version="1.1" id="Слой_1" xmlns="http://www.w3.org/2000/svg" xmlns:xlink="http://www.w3.org/1999/xlink" x="0px" y="0px"
	 width="50px" height="50px" viewBox="0 0 50 50" enable-background="new 0 0 50 50" xml:space="preserve">
<g>
	<path fill-rule="evenodd" clip-rule="evenodd" fill="#010202" d="M25.04,3.33C13.1,3.3,3.38,12.98,3.33,24.95
		c-0.04,11.93,9.64,21.659,21.6,21.72c11.96,0.051,21.71-9.66,21.74-21.64C46.689,13.08,37,3.37,25.04,3.33z M25,50
		C11.2,50-0.01,38.779,0,24.98C0.01,11.18,11.23-0.01,25.03,0C38.83,0.01,50.02,11.24,50,25.04C49.98,38.82,38.779,50,25,50z"/>
	<path fill-rule="evenodd" clip-rule="evenodd" fill="#010202" d="M24.97,17.92c-3.02,0-6.04,0-9.06-0.01
		c-1.31,0-2.13-1.25-1.57-2.38c0.32-0.65,0.87-0.95,1.6-0.95h5.83c4.1,0,8.19,0,12.291,0.01c1.27,0,2.09,1.14,1.66,2.26
		c-0.261,0.67-0.871,1.06-1.691,1.07H24.97z"/>
	<path fill-rule="evenodd" clip-rule="evenodd" fill="#010202" d="M25,26.67c-3.02,0-6.04,0-9.06-0.01c-1.27,0-2.1-1.13-1.66-2.26
		c0.27-0.67,0.8-1.04,1.53-1.06c0.64-0.02,1.28-0.01,1.92-0.01h16.09c0.229,0,0.459,0,0.68,0.04c0.83,0.17,1.41,0.96,1.33,1.8
		c-0.09,0.85-0.801,1.49-1.721,1.49c-2.5,0.01-5,0.01-7.5,0.01H25z"/>
	<path fill-rule="evenodd" clip-rule="evenodd" fill="#010202" d="M25.03,32.08l9.06,0.01c0.83,0,1.45,0.45,1.67,1.21
		c0.211,0.681-0.05,1.44-0.67,1.81c-0.29,0.17-0.65,0.291-0.98,0.291c-6.069,0.02-12.149,0.02-18.219,0.01
		c-0.98,0-1.72-0.721-1.72-1.65c-0.01-0.949,0.73-1.67,1.74-1.67C18.95,32.08,21.99,32.08,25.03,32.08z"/>
</g>
</svg>
