<?xml version="1.0" encoding="utf-8"?>
<!-- Generator: Adobe Illustrator 16.0.0, SVG Export Plug-In . SVG Version: 6.00 Build 0)  -->
<!DOCTYPE svg PUBLIC "-//W3C//DTD SVG 1.1//EN" "http://www.w3.org/Graphics/SVG/1.1/DTD/svg11.dtd">
<svg version="1.1" id="Слой_1" xmlns="http://www.w3.org/2000/svg" xmlns:xlink="http://www.w3.org/1999/xlink" x="0px" y="0px"
	 width="23px" height="13px" viewBox="0 0 23 13" enable-background="new 0 0 23 13" xml:space="preserve">
<g>
	<path fill-rule="evenodd" clip-rule="evenodd" fill="#010202" d="M0,1.249v-0.31c0.19-0.32,0.52-0.34,0.84-0.35l2.9-0.01
		c0.68,0,0.93,0.16,1.2,0.78c0.6,1.36,1.27,2.68,2.07,3.94c0.25,0.39,0.55,0.76,0.98,0.99c0.32,0.18,0.59,0.1,0.75-0.23
		c0.07-0.14,0.13-0.29,0.15-0.44c0.07-0.37,0.13-0.75,0.16-1.12c0.06-0.87,0.04-1.73-0.16-2.59c-0.1-0.44-0.36-0.74-0.79-0.88
		l-0.28-0.07c-0.22-0.06-0.24-0.11-0.1-0.28c0.21-0.24,0.46-0.44,0.78-0.49c0.45-0.07,0.89-0.13,1.34-0.16
		c0.9-0.05,1.811-0.05,2.7,0.11c0.601,0.1,0.819,0.32,0.92,0.9c0.021,0.08,0.021,0.16,0.021,0.24l-0.021,1.67
		c-0.01,0.78-0.04,1.56-0.01,2.34c0,0.27,0.1,0.57,0.229,0.81c0.16,0.29,0.461,0.32,0.7,0.1c0.29-0.26,0.58-0.53,0.81-0.83
		c0.961-1.28,1.711-2.68,2.301-4.16c0.21-0.51,0.34-0.59,0.9-0.59h0.18c1.17-0.01,2.35-0.03,3.52-0.03c0.36,0,0.75,0.01,0.91,0.44
		v0.31c-0.15,0.34-0.27,0.69-0.439,1.01c-0.58,1.08-1.36,2.02-2.09,2.99c-0.381,0.51-0.75,1.02-1.091,1.55
		c-0.21,0.31-0.18,0.66,0.04,0.959c0.15,0.211,0.34,0.4,0.52,0.58c0.631,0.641,1.301,1.25,1.91,1.91c0.51,0.551,1.03,1.12,1.15,1.91
		v0.04c-0.07,0.399-0.35,0.569-0.721,0.62c-0.199,0.029-0.399,0.029-0.6,0.04c-0.91,0.021-1.83,0.01-2.74,0.05
		c-0.439,0.02-0.83-0.08-1.209-0.26c-0.541-0.26-0.94-0.69-1.34-1.11c-0.431-0.46-0.851-0.94-1.311-1.36
		c-0.53-0.5-0.96-0.41-1.32,0.221c-0.06,0.119-0.13,0.24-0.15,0.369c-0.069,0.4-0.129,0.801-0.159,1.211
		c-0.05,0.609-0.3,0.859-0.921,0.869c-0.5,0.011-1,0.021-1.509,0c-0.36-0.01-0.73-0.029-1.09-0.109c-1.91-0.4-3.46-1.42-4.71-2.859
		c-1.5-1.711-2.71-3.621-3.73-5.641C0.97,3.319,0.49,2.279,0,1.249z"/>
</g>
</svg>
