<?xml version="1.0" encoding="utf-8"?>
<!-- Generator: Adobe Illustrator 16.2.0, SVG Export Plug-In . SVG Version: 6.00 Build 0)  -->
<!DOCTYPE svg PUBLIC "-//W3C//DTD SVG 1.1//EN" "http://www.w3.org/Graphics/SVG/1.1/DTD/svg11.dtd">
<svg version="1.1" id="Слой_1" xmlns="http://www.w3.org/2000/svg" xmlns:xlink="http://www.w3.org/1999/xlink" x="0px" y="0px"
	 width="50px" height="50px" viewBox="0 0 50 50" enable-background="new 0 0 50 50" xml:space="preserve">
<path fill-rule="evenodd" clip-rule="evenodd" fill="#4A76A8" d="M0,25C0,11.19,11.19,0,25,0c13.811,0,25,11.19,25,25
	c0,13.811-11.189,25-25,25C11.19,50,0,38.811,0,25z"/>
<path fill="#FFFFFF" d="M38.641,32.561c-0.07-0.131-0.541-1.121-2.761-3.17c-2.319-2.15-2.01-1.801,0.79-5.511
	c1.71-2.26,2.391-3.64,2.18-4.22c-0.209-0.57-1.459-0.42-1.459-0.42l-4.181,0.03c0,0-0.31-0.05-0.54,0.09
	c-0.22,0.13-0.359,0.44-0.359,0.44s-0.67,1.75-1.551,3.24c-1.859,3.14-2.6,3.3-2.91,3.11c-0.699-0.46-0.529-1.831-0.529-2.8
	c0-3.04,0.47-4.31-0.9-4.63c-0.45-0.11-0.79-0.19-1.95-0.2c-1.49-0.01-2.75,0.01-3.47,0.35c-0.47,0.23-0.84,0.75-0.61,0.78
	c0.27,0.04,0.9,0.17,1.23,0.62c0.43,0.57,0.41,1.87,0.41,1.87s0.25,3.58-0.57,4.03c-0.57,0.301-1.34-0.32-3-3.17
	c-0.85-1.46-1.49-3.07-1.49-3.07s-0.12-0.3-0.34-0.46c-0.27-0.19-0.64-0.25-0.64-0.25l-3.97,0.02c0,0-0.6,0.02-0.82,0.27
	c-0.19,0.23-0.01,0.71-0.01,0.71s3.1,7.219,6.62,10.86c3.23,3.33,6.89,3.109,6.89,3.109h1.659c0,0,0.5-0.049,0.761-0.33
	c0.239-0.25,0.229-0.719,0.229-0.719s-0.039-2.211,1-2.541c1.021-0.32,2.33,2.141,3.711,3.09c1.049,0.711,1.85,0.551,1.85,0.551
	l3.71-0.051C37.62,34.189,39.561,34.07,38.641,32.561z"/>
</svg>
