<?xml version="1.0" encoding="utf-8"?>
<!-- Generator: Adobe Illustrator 16.0.0, SVG Export Plug-In . SVG Version: 6.00 Build 0)  -->
<!DOCTYPE svg PUBLIC "-//W3C//DTD SVG 1.1//EN" "http://www.w3.org/Graphics/SVG/1.1/DTD/svg11.dtd">
<svg version="1.1" id="Слой_1" xmlns="http://www.w3.org/2000/svg" xmlns:xlink="http://www.w3.org/1999/xlink" x="0px" y="0px"
	 width="20px" height="35px" viewBox="0 0 20 35" enable-background="new 0 0 20 35" xml:space="preserve">
<path fill-rule="evenodd" clip-rule="evenodd" fill="#CDCCCC" d="M2.12,35c-0.62-0.16-1.18-0.42-1.59-0.939
	c-0.69-0.871-0.71-2.131-0.01-3c0.14-0.17,0.28-0.33,0.44-0.48l12.79-12.76c0.1-0.1,0.221-0.17,0.38-0.41
	c-0.12-0.07-0.26-0.11-0.351-0.21L0.86,4.33C0.12,3.59-0.2,2.74,0.12,1.72c0.26-0.81,0.8-1.34,1.61-1.6L2.12,0H2.8
	c0.76,0.16,1.31,0.63,1.85,1.17c4.82,4.82,9.65,9.63,14.48,14.44c0.761,0.76,1.091,1.64,0.72,2.669
	c-0.129,0.371-0.369,0.74-0.66,1.021C14.23,24.27,9.25,29.23,4.28,34.189C3.86,34.609,3.36,34.85,2.8,35H2.12z"/>
</svg>
