<?xml version="1.0" encoding="utf-8"?>
<!-- Generator: Adobe Illustrator 16.0.0, SVG Export Plug-In . SVG Version: 6.00 Build 0)  -->
<!DOCTYPE svg PUBLIC "-//W3C//DTD SVG 1.1//EN" "http://www.w3.org/Graphics/SVG/1.1/DTD/svg11.dtd">
<svg version="1.1" id="Слой_1" xmlns="http://www.w3.org/2000/svg" xmlns:xlink="http://www.w3.org/1999/xlink" x="0px" y="0px"
	 width="16px" height="19px" viewBox="0 0 16 19" enable-background="new 0 0 16 19" xml:space="preserve">
<path fill-rule="evenodd" clip-rule="evenodd" fill="#010202" d="M6.46,5.48v3.21c0,0.3,0.2,0.49,0.51,0.49H9.85
	c0.041,0,0.07-0.01,0.121-0.02L6.46,5.48z M14.3,5.38l-3.53-3.7V1.9v2.89c0,0.42,0.17,0.59,0.57,0.59h2.75H14.3z M5.54,3.79
	L5.67,3.8c0.65-0.05,1.14,0.22,1.58,0.7c1.29,1.37,2.6,2.73,3.91,4.09c0.359,0.37,0.54,0.81,0.529,1.34c-0.01,1.259,0,2.52,0,3.78
	v0.22h1.891c0.76,0,1.189-0.43,1.189-1.22V6.87V6.65h-0.24H11.32c-1.051,0-1.78-0.75-1.78-1.84V1.49V1.27c-1.02,0-2-0.01-2.99,0.01
	c-0.53,0-0.99,0.48-1.01,1.03C5.53,2.8,5.54,3.28,5.54,3.79z M5.23,5.07H5.02H2.41c-0.72,0-1.18,0.46-1.18,1.2v10.27
	c0,0.75,0.44,1.19,1.17,1.19h6.879c0.75,0,1.181-0.44,1.181-1.211v-5.85v-0.21l-0.069-0.01H7.05c-1.1,0-1.82-0.74-1.82-1.87V5.07z
	 M4.31,3.8V2.48C4.31,1.05,5.32,0,6.71,0h3.44c0.49,0,0.899,0.17,1.25,0.54c1.35,1.41,2.689,2.82,4.05,4.23
	C15.83,5.16,16,5.61,16,6.17c-0.01,2.21,0,4.42,0,6.63c-0.01,1.229-0.83,2.22-2.02,2.38C13.6,15.23,13.221,15.2,12.83,15.2h-1.141
	v0.239C11.68,15.96,11.71,16.48,11.65,17c-0.15,1.16-1.11,2-2.25,2H2.29C1.03,19,0.01,17.95,0,16.65c0-3.5,0-7,0-10.49
	C0.01,4.87,1.05,3.81,2.3,3.8H4.31z"/>
</svg>
