<?xml version="1.0" encoding="utf-8"?>
<!-- Generator: Adobe Illustrator 16.0.0, SVG Export Plug-In . SVG Version: 6.00 Build 0)  -->
<!DOCTYPE svg PUBLIC "-//W3C//DTD SVG 1.1//EN" "http://www.w3.org/Graphics/SVG/1.1/DTD/svg11.dtd">
<svg version="1.1" id="Слой_1" xmlns="http://www.w3.org/2000/svg" xmlns:xlink="http://www.w3.org/1999/xlink" x="0px" y="0px"
	 width="18px" height="15px" viewBox="0 0 18 15" enable-background="new 0 0 18 15" xml:space="preserve">
<path fill-rule="evenodd" clip-rule="evenodd" fill="#010202" d="M0,7.039v-0.21c0.07-0.1,0.13-0.22,0.22-0.29
	c0.23-0.14,0.47-0.29,0.72-0.38l11.46-4.4l4.369-1.67c0.57-0.22,1.101-0.04,1.211,0.59L18,0.709v0.46l-0.05,0.2l-2.63,12.31
	c-0.061,0.28-0.12,0.561-0.23,0.82c-0.189,0.45-0.561,0.6-1.01,0.439c-0.16-0.049-0.32-0.129-0.45-0.229l-3.83-2.8
	c-0.24-0.18-0.17-0.18-0.39,0.029l-1.92,1.83c-0.2,0.19-0.42,0.311-0.72,0.291l0.05-0.761c0.08-1.09,0.15-2.18,0.24-3.271
	c0.01-0.079,0.05-0.18,0.11-0.239l7.27-6.53c0.121-0.11,0.24-0.21,0.351-0.33c0.03-0.04,0.06-0.12,0.04-0.17
	c-0.02-0.04-0.109-0.09-0.15-0.07c-0.17,0.04-0.35,0.08-0.49,0.17c-1.08,0.66-2.149,1.33-3.219,2L4.87,8.679
	C4.81,8.72,4.71,8.749,4.65,8.729c-1.36-0.411-2.72-0.84-4.07-1.26C0.34,7.389,0.13,7.259,0,7.039z"/>
</svg>
