<?xml version="1.0" encoding="utf-8"?>
<!-- Generator: Adobe Illustrator 16.0.0, SVG Export Plug-In . SVG Version: 6.00 Build 0)  -->
<!DOCTYPE svg PUBLIC "-//W3C//DTD SVG 1.1//EN" "http://www.w3.org/Graphics/SVG/1.1/DTD/svg11.dtd">
<svg version="1.1" id="Слой_1" xmlns="http://www.w3.org/2000/svg" xmlns:xlink="http://www.w3.org/1999/xlink" x="0px" y="0px"
	 width="15px" height="15px" viewBox="0 0 15 15" enable-background="new 0 0 15 15" xml:space="preserve">
<path fill-rule="evenodd" clip-rule="evenodd" fill="#010202" d="M3.092,0c0.3,0.06,0.59,0.16,0.83,0.36l0.1,0.08
	c0.67,0.67,1.35,1.34,2.02,2.02c0.5,0.51,0.58,1.2,0.23,1.77c-0.16,0.26-0.38,0.44-0.67,0.55c-0.41,0.15-0.73,0.4-0.91,0.81
	c-0.12,0.27-0.13,0.55-0.05,0.84c0.19,0.73,0.59,1.35,1.07,1.91c0.62,0.721,1.32,1.33,2.18,1.75c0.3,0.15,0.619,0.29,0.959,0.27
	c0.66-0.029,1.121-0.34,1.352-0.969c0.109-0.291,0.299-0.531,0.568-0.69c0.531-0.31,1.191-0.271,1.641,0.14
	c0.439,0.391,0.84,0.82,1.26,1.23c0.34,0.34,0.689,0.67,1,1.029c0.42,0.48,0.43,1.23,0.061,1.75c-0.07,0.11-0.16,0.211-0.25,0.301
	c-0.4,0.399-0.801,0.789-1.189,1.199c-0.361,0.371-0.781,0.57-1.291,0.631c-0.02,0-0.049,0.01-0.07,0.02h-0.609
	c-0.279-0.05-0.551-0.09-0.82-0.16c-1.109-0.279-2.109-0.8-3.06-1.41c-1.58-1.02-2.97-2.26-4.2-3.67c-1.09-1.24-2.04-2.58-2.69-4.1
	c-0.3-0.72-0.53-1.46-0.55-2.24c-0.02-0.7,0.17-1.31,0.7-1.79c0.35-0.32,0.68-0.66,1-1c0.3-0.31,0.62-0.57,1.07-0.63H3.092z"/>
</svg>
