<?xml version="1.0" encoding="utf-8"?>
<!-- Generator: Adobe Illustrator 16.0.0, SVG Export Plug-In . SVG Version: 6.00 Build 0)  -->
<!DOCTYPE svg PUBLIC "-//W3C//DTD SVG 1.1//EN" "http://www.w3.org/Graphics/SVG/1.1/DTD/svg11.dtd">
<svg version="1.1" id="Слой_1" xmlns="http://www.w3.org/2000/svg" xmlns:xlink="http://www.w3.org/1999/xlink" x="0px" y="0px"
	 width="37px" height="37px" viewBox="0 0 37 37" enable-background="new 0 0 37 37" xml:space="preserve">
<path fill-rule="evenodd" clip-rule="evenodd" fill="#FFD34F" d="M0,18.5C0,8.28,8.28,0,18.5,0C28.721,0,37,8.28,37,18.5
	C37,28.721,28.721,37,18.5,37C8.28,37,0,28.721,0,18.5z"/>
<g>
	<path fill-rule="evenodd" clip-rule="evenodd" fill="#010202" d="M24.404,21.922h-0.189h-2.24c-0.131,0-0.221,0.039-0.311,0.129
		l-2.76,2.82c-0.4,0.4-0.76,0.4-1.16,0l-2.76-2.82c-0.09-0.09-0.18-0.129-0.31-0.129h-2.24l-0.19,0.01l-0.52,4.459h13.2
		L24.404,21.922z M18.364,23.541l0.05-0.049c1.17-1.191,2.34-2.371,3.5-3.57c1.01-1.041,1.53-2.29,1.51-3.72
		c-0.02-1.74-0.709-3.18-2.149-4.23c-1.341-0.98-2.851-1.23-4.45-0.73c-2.22,0.69-3.63,2.75-3.6,5.02
		c0.01,1.46,0.56,2.709,1.61,3.76c0.97,0.98,1.94,1.98,2.91,2.971C17.934,23.182,18.144,23.342,18.364,23.541z M18.684,9.702
		c0.371,0.06,0.75,0.09,1.111,0.18c2.279,0.6,3.809,2,4.579,4.16c0.71,2,0.45,3.92-0.659,5.73c-0.15,0.25-0.341,0.459-0.521,0.689
		l-0.13,0.16h0.75l1.14,0.01c0.42,0,0.67,0.23,0.72,0.641l0.57,4.93c0.02,0.23,0.051,0.461,0.08,0.689
		c0.04,0.531-0.23,0.811-0.77,0.811h-9.061h-5.38c-0.57,0-0.84-0.289-0.78-0.84l0.56-4.83l0.08-0.76c0.05-0.41,0.3-0.641,0.72-0.641
		l1.72-0.01h0.16l-0.07-0.1c-0.88-1.01-1.4-2.18-1.55-3.49c-0.22-1.8,0.22-3.45,1.36-4.88c1.05-1.33,2.42-2.14,4.14-2.38l0.51-0.07
		H18.684z"/>
	<path fill-rule="evenodd" clip-rule="evenodd" fill="#010202" d="M16.984,15.512c-0.06,0.71,0.5,1.33,1.29,1.38
		c0.72,0.05,1.35-0.51,1.399-1.24c0.041-0.67-0.51-1.32-1.189-1.38C17.674,14.211,17.054,14.722,16.984,15.512z M21.004,15.582
		c0,1.45-1.209,2.62-2.68,2.62c-1.48,0-2.7-1.2-2.68-2.64c0.01-1.45,1.21-2.61,2.69-2.6C19.814,12.972,21.014,14.142,21.004,15.582z
		"/>
</g>
</svg>
