<?xml version="1.0" encoding="utf-8"?>
<!-- Generator: Adobe Illustrator 16.0.0, SVG Export Plug-In . SVG Version: 6.00 Build 0)  -->
<!DOCTYPE svg PUBLIC "-//W3C//DTD SVG 1.1//EN" "http://www.w3.org/Graphics/SVG/1.1/DTD/svg11.dtd">
<svg version="1.1" id="Слой_1" xmlns="http://www.w3.org/2000/svg" xmlns:xlink="http://www.w3.org/1999/xlink" x="0px" y="0px"
	 width="37px" height="37px" viewBox="0 0 37 37" enable-background="new 0 0 37 37" xml:space="preserve">
<path fill-rule="evenodd" clip-rule="evenodd" fill="#FFD34F" d="M0,18.5C0,8.28,8.28,0,18.5,0C28.721,0,37,8.28,37,18.5
	C37,28.721,28.721,37,18.5,37C8.28,37,0,28.721,0,18.5z"/>
<path fill-rule="evenodd" clip-rule="evenodd" fill="#010202" d="M21.399,25.151c0.27-0.271,0.529-0.521,0.77-0.781
	c0.04-0.049,0.061-0.139,0.051-0.199l-0.361-2.551l-0.549-3.86c-0.041-0.28,0.02-0.51,0.229-0.71c0.53-0.52,1.06-1.05,1.59-1.58
	c0.55-0.55,1.11-1.09,1.65-1.64c0.6-0.61,0.35-1.55-0.45-1.75c-0.4-0.1-0.73,0.04-1.01,0.32c-1.061,1.07-2.12,2.12-3.18,3.19
	c-0.201,0.21-0.431,0.29-0.721,0.25c-0.99-0.15-1.98-0.28-2.97-0.42l-3.49-0.49c-0.05-0.01-0.11-0.01-0.13,0.02l-0.82,0.81
	l0.19,0.08l4.57,1.82c0.51,0.2,0.62,0.64,0.26,1.06c-0.99,1.17-1.98,2.342-2.97,3.512c-0.17,0.209-0.37,0.33-0.64,0.359
	c-0.24,0.029-0.48,0.08-0.69,0.119l1.73,1.73l0.12-0.709c0.03-0.221,0.1-0.41,0.28-0.561l3.611-3.061
	c0.08-0.061,0.159-0.109,0.239-0.141c0.33-0.129,0.649,0.051,0.8,0.441l1.76,4.43L21.399,25.151z M26.329,13.31
	c-0.09,0.27-0.15,0.55-0.27,0.8c-0.11,0.22-0.28,0.42-0.451,0.6c-0.989,0.99-1.979,1.97-2.969,2.95c-0.08,0.08-0.101,0.15-0.09,0.26
	l0.93,6.47c0.02,0.211-0.021,0.4-0.17,0.551c-0.57,0.58-1.141,1.16-1.73,1.721c-0.33,0.33-0.811,0.189-1-0.271L19.8,24.401
	l-1.091-2.74l-0.05-0.111l-0.08,0.061l-2.71,2.301c-0.06,0.049-0.11,0.139-0.13,0.229c-0.1,0.551-0.19,1.102-0.29,1.66
	c-0.05,0.25-0.18,0.441-0.43,0.521c-0.25,0.068-0.46,0-0.64-0.182l-3.35-3.35c-0.18-0.18-0.26-0.4-0.18-0.65
	c0.08-0.26,0.28-0.379,0.53-0.42l1.68-0.299c0.06-0.01,0.13-0.041,0.17-0.09l2.36-2.781l0.02-0.05l-0.16-0.07
	c-1.51-0.6-3.02-1.21-4.53-1.8c-0.27-0.11-0.48-0.24-0.59-0.51v-0.25c0.08-0.13,0.14-0.27,0.24-0.37c0.53-0.54,1.07-1.07,1.6-1.61
	c0.17-0.17,0.36-0.25,0.6-0.21l1.49,0.21l4.97,0.7c0.129,0.02,0.22-0.01,0.31-0.11c0.979-0.98,1.95-1.96,2.94-2.93
	c0.209-0.2,0.459-0.37,0.72-0.51c0.19-0.1,0.42-0.14,0.63-0.2h0.529c0.021,0.01,0.051,0.02,0.07,0.03c0.78,0.13,1.34,0.55,1.68,1.26
	c0.101,0.22,0.15,0.45,0.221,0.68V13.31z"/>
</svg>
