<?xml version="1.0" encoding="utf-8"?>
<!-- Generator: Adobe Illustrator 16.0.0, SVG Export Plug-In . SVG Version: 6.00 Build 0)  -->
<!DOCTYPE svg PUBLIC "-//W3C//DTD SVG 1.1//EN" "http://www.w3.org/Graphics/SVG/1.1/DTD/svg11.dtd">
<svg version="1.1" id="Слой_1" xmlns="http://www.w3.org/2000/svg" xmlns:xlink="http://www.w3.org/1999/xlink" x="0px" y="0px"
	 width="58px" height="66px" viewBox="0 0 58 66" enable-background="new 0 0 58 66" xml:space="preserve">
<g>
	<path fill-rule="evenodd" clip-rule="evenodd" fill="#FFD34F" d="M1.81,29.15c-1.61-1.12-2.2-2.79-1.55-4.72
		c1.77-5.3,4.66-9.95,8.16-14.23c2.31-2.83,2.42-2.83,5.85-1.61c4.83,1.72,9.39,3.98,13.49,7.11c2.01,1.53,3.641,3.43,4.02,6.06
		c0.421,2.94-0.51,5.52-2.339,7.79c-2.17,2.7-5.05,4.18-8.3,5.011c-2.82,0.729-5.68,1.119-8.6,0.899c-1.78-0.14-3.42-0.771-5-1.59
		c-0.1-0.05-0.2-0.09-0.21-0.3c2.39-0.62,6.91-1.01,7.41-1.12c2.15-0.46,8.44-0.89,12.02-3.88c3.26-2.71,4.11-7.14,1.36-10.1
		c-1.39-1.49-3.21-1.97-5.14-2.09c-5.89-0.35-11.04,1.6-15.51,5.39c-1.55,1.3-2.96,2.81-4.24,4.39C2.55,26.99,2.27,28.15,1.81,29.15
		z"/>
	<path fill-rule="evenodd" clip-rule="evenodd" fill="#010202" d="M12.4,31.12c-1.53,0.35-3.03,0.83-4.56,1.18
		c-0.7,0.16-1.45,0.24-2.17,0.2c-1.94-0.13-2.93-1.62-2.39-3.51c0.38-1.33,1.12-2.42,2.06-3.4c3.17-3.26,6.74-5.83,11.17-7.02
		c2.63-0.71,5.3-0.92,7.97-0.41c1.62,0.31,2.79,1.43,3.47,2.96c1.17,2.66,0.28,4.5-1.97,6.33C23.28,29.66,13.83,30.79,12.4,31.12z"
		/>
	<path fill-rule="evenodd" clip-rule="evenodd" fill="#010202" d="M23.61,57.18c-1.74,0.221-3.47,0.551-5.21,0.641
		c-5.06,0.27-9.81-0.91-14.33-3.11c-0.95-0.47-1.94-0.851-2.87-1.37c-0.29-0.17-0.55-0.63-0.59-0.98
		c-0.05-0.489,0.03-1.039,0.2-1.52c0.81-2.3,2.12-4.29,3.91-5.92c1.4-1.27,2.99-1.91,4.9-1.37c0.56,0.16,1.34,0.011,1.69,0.351
		c0.34,0.33,0.27,1.109,0.37,1.699c0.67,3.9,2.95,6.641,6.24,8.561c1.49,0.88,3.14,1.48,4.72,2.199c0.33,0.16,0.66,0.291,1,0.44
		L23.61,57.18z"/>
	<path fill-rule="evenodd" clip-rule="evenodd" fill="#010202" d="M44.79,42.67c1.44-4.42,2.08-8.76,0.979-13.48
		c0.291,0.3,0.451,0.42,0.551,0.58c0.3,0.46,0.6,0.92,0.869,1.4c1.351,2.48,2.281,2.939,5.061,2.44c1.189-0.21,2.38-0.46,3.59-0.1
		c1.5,0.44,2.34,1.7,2.131,3.27C57.7,38.8,56.75,40.41,55,41.42C51.811,43.25,48.38,43.02,44.79,42.67z"/>
	<path fill-rule="evenodd" clip-rule="evenodd" fill="#FFD34F" d="M29.79,9.35c-0.6,1.48-1.19,2.85-1.78,4.33
		c-4.58-2.29-9.53-4.45-14.07-6.72C16.76,5.1,26.47,6.5,29.79,9.35z"/>
	<path fill-rule="evenodd" clip-rule="evenodd" fill="#010202" d="M48.63,19.35c0.06,0.33,1.399,1.78,3.33,2.34
		c0.12,0.03,0.22,0.06,0.319,0.08c-0.489,0.69-1.01,1.21-1.399,1.45c-2.81,1.76-4.909-2.33-4.909-4.3c0-1.97,1.129-2.95,2.469-3.63
		c1.49-0.76,3.92-1.37,4.84,0.37c0.891,1.69-0.279,5.26-0.51,5.28C51.01,21.12,48.529,18.63,48.63,19.35z M43.18,3.74l-2.31-0.27
		c0.25-0.73,0.409-1.44,0.729-2.05c0.28-0.53,0.851-0.49,1.061,0.07C42.92,2.17,43,2.92,43.18,3.74z M40.65,47.17
		c0.3-0.359,0.97-1.199,1.17-1.55c2.699-4.79,3.65-9.94,3.029-15.38c-0.209-1.9-0.939-3.6-2.289-4.99
		c-0.141-0.14-0.271-0.29-0.521-0.58c0.83,0.22,1.479,0.39,2.12,0.56c4.68,1.29,8.5-1.07,9.98-4.66c0.18-0.35,0.319-0.74,0.43-1.14
		c0.09-0.16,0.209-0.3,0.34-0.41c0.869-0.77,1.17-1.75,1.08-2.88c-0.061-0.95-0.471-1.35-1.43-1.44c-0.36-0.03-0.61-0.08-0.781-0.19
		c-0.109-0.15-0.219-0.3-0.34-0.44c-0.06-0.18-0.1-0.4-0.14-0.69c-0.149-1.16-0.271-2.36-0.67-3.44
		c-0.979-2.67-3.03-4.29-5.601-5.23c-0.829-0.3-1.27-0.6-1.17-1.64c0.061-0.56,0.091-1.45-0.699-1.78
		c-0.59-0.23-1.01,0.18-1.59,0.29c0.02,0.04-0.041-0.07-0.08-0.19c-0.59-1.54-1.91-1.87-3.01-0.64C39.93,1.35,39.6,2.17,39.27,2.94
		c-0.18,0.4-0.299,0.69-0.789,0.79c-2.86,0.57-4.99,2.26-6.44,4.73c-1.04,1.78-1.72,3.77-2.62,5.63c-0.34,0.69-0.21,1.07,0.34,1.59
		c3,2.83,4.26,6.25,3.01,10.34c-1.029,3.36-3.149,5.9-6.12,7.7c-3.82,2.299-8.05,2.95-12.39,3.16c-0.67,0.03-1,0.22-1.08,0.88
		c-0.16,1.44-0.42,2.881-0.47,4.33c-0.13,4.32,1.54,7.77,5.08,10.25c1.97,1.37,4.13,2.27,6.4,2.96c0.36,0.11,0.76,0.32,0.99,0.601
		c1.32,1.6,2.57,3.24,3.88,4.85c0.48,0.6,2.129,3.62,7.2,5.029c3.25,0.9,6.25-1.079,8.811-3.199c0.93-0.78,1.72-1.68,1.99-2.93
		C47.29,58.62,47,57.98,46.05,57.76c-0.97-0.23-1.6-0.82-2-1.65c-0.329-0.689-0.59-1.42-0.79-2.159c-0.74-2.81-2.27-5-4.81-6.431
		c-1.25-0.709-3.45-1.859-4.71-2.56C32.471,44.26,37.82,44.891,40.65,47.17z M46.09,12.38c0-0.75,1.439-1.48,2.04-1.48
		s-0.42,1.01-0.42,1.76s1.229,1.07,0.149,1.36C47.279,14.17,46.09,13.13,46.09,12.38z"/>
</g>
</svg>
