<?xml version="1.0" encoding="utf-8"?>
<!-- Generator: Adobe Illustrator 16.0.0, SVG Export Plug-In . SVG Version: 6.00 Build 0)  -->
<!DOCTYPE svg PUBLIC "-//W3C//DTD SVG 1.1//EN" "http://www.w3.org/Graphics/SVG/1.1/DTD/svg11.dtd">
<svg version="1.1" id="Слой_1" xmlns="http://www.w3.org/2000/svg" xmlns:xlink="http://www.w3.org/1999/xlink" x="0px" y="0px"
	 width="86px" height="42px" viewBox="0 0 86 42" enable-background="new 0 0 86 42" xml:space="preserve">
<path fill-rule="evenodd" clip-rule="evenodd" fill="#FFFBEA" d="M13,0h60c7.18,0,13,5.82,13,13v16c0,7.18-5.82,13-13,13H13
	C5.82,42,0,36.18,0,29V13C0,5.82,5.82,0,13,0z"/>
<g>
	<path fill-rule="evenodd" clip-rule="evenodd" fill="#9D9D9C" d="M66.402,26.295c0-0.49-0.33-0.79-0.75-0.79
		c-0.47,0-0.82,0.32-0.9,0.79H66.402z M58.162,26.295c0-0.49-0.33-0.79-0.75-0.79c-0.47,0-0.82,0.32-0.91,0.79H58.162z
		 M47.022,27.915c0.61,0,1.12-0.47,1.12-1.17c0-0.681-0.51-1.17-1.12-1.17s-1.09,0.47-1.09,1.17S46.412,27.915,47.022,27.915z
		 M68.112,24.895h0.921v1.431h0.459l0.9-1.431h1.029l-1.18,1.78v0.021l1.32,1.939h-1.08l-0.98-1.52h-0.479v1.52h-0.931v-3.74H68.112
		L68.112,24.895z M65.692,24.805c1.06,0,1.649,0.791,1.649,1.771c0,0.12-0.01,0.239-0.029,0.36h-2.561c0.051,0.649,0.551,1,1.11,1
		c0.39,0,0.771-0.181,1.06-0.4l0.371,0.66c-0.381,0.33-0.961,0.539-1.5,0.539c-1.23,0-2-0.889-2-1.949
		C63.793,25.615,64.572,24.805,65.692,24.805z M59.543,27.846c0.449-0.07,0.779-0.451,0.779-1.781v-1.17h2.721v3.74h-0.92v-2.99
		h-0.91v0.42c0,1.621-0.44,2.57-1.67,2.601V27.846z M57.453,24.805c1.06,0,1.649,0.791,1.649,1.771c0,0.12-0.011,0.239-0.03,0.36
		h-2.57c0.061,0.649,0.561,1,1.121,1c0.379,0,0.77-0.181,1.06-0.4l0.37,0.66c-0.391,0.33-0.961,0.539-1.5,0.539
		c-1.24,0-2-0.889-2-1.949C55.553,25.615,56.332,24.805,57.453,24.805z M49.813,24.895h0.891v2.931h1.17v-2.931h0.89v2.931h1.159
		v-2.931h0.891v3.74h-4.96v-3.74H49.813z M47.022,24.805c1.14,0,2.06,0.82,2.06,1.961c0,1.149-0.91,1.949-2.039,1.949
		c-1.131,0-2.041-0.8-2.041-1.949C44.982,25.615,45.893,24.805,47.022,24.805z M40.963,23.436h0.939v2.109h0.68l1.221-2.109h1.029
		l-1.47,2.469v0.021l1.56,2.71h-1.069l-1.25-2.27h-0.681v2.27h-0.939v-5.199H40.963L40.963,23.436z"/>
	<path fill-rule="evenodd" clip-rule="evenodd" fill="#9D9D9C" d="M46.293,18.895l-0.961-1.17c-0.1-0.12-0.01-0.32,0.141-0.32h2.02
		c0.11-0.27,0.16-0.59,0.16-0.9c0-1.45-1.08-2.71-2.561-2.71c-1.479,0-2.559,1.26-2.559,2.71c0,1.45,1.079,2.69,2.559,2.69
		C45.513,19.205,45.933,19.085,46.293,18.895z M23.553,32.145c-6.62,0-11.99-5.379-11.99-12.01c0-6.63,5.37-12.01,11.99-12.01
		c6.619,0,11.99,5.38,11.99,12.01c0,2.25-0.631,4.36-1.69,6.16c-0.04,0.051-0.12,0.03-0.14-0.04c-0.42-2.95-2.211-4.57-4.83-5.06
		c-0.221-0.03-0.26-0.17,0.039-0.21c0.801-0.07,1.931-0.05,2.521,0.05c0.04-0.29,0.06-0.61,0.06-0.92c0-4.38-3.56-7.94-7.93-7.94
		c-4.38,0-7.93,3.56-7.93,7.94c0,4.38,3.55,7.939,7.93,7.939h0.36c-0.12-0.709-0.17-1.43-0.149-2.15
		c0.01-0.479,0.119-0.549,0.329-0.17c1.091,1.9,2.66,3.611,5.729,4.291c2.511,0.56,5.021,1.209,7.721,4.649
		c0.24,0.29-0.12,0.61-0.4,0.36c-2.75-2.439-5.26-3.24-7.55-3.24C27.053,31.805,25.313,32.145,23.553,32.145L23.553,32.145z
		 M29.652,27.096c0.28,0,0.59,0.119,0.87,0.369c0.54,0.45,0.7,0.971,0.42,1.36c-0.159,0.19-0.42,0.31-0.72,0.31
		c-0.29,0-0.61-0.1-0.82-0.289c-0.48-0.421-0.619-1.121-0.311-1.5C29.213,27.186,29.402,27.096,29.652,27.096z M32.303,25.125
		c0.449,0.17,0.619,0.85,0.66,1.15c0.07,0.539-0.09,0.75-0.26,0.75c-0.181,0-0.42-0.211-0.681-0.631
		c-0.26-0.42-0.37-0.89-0.229-1.129C31.883,25.105,32.072,25.035,32.303,25.125L32.303,25.125z M50.652,20.845
		c0.1,0.13,0.02,0.3-0.14,0.3h-2.2c-0.09,0-0.17-0.04-0.221-0.11l-0.369-0.45c-0.77,0.49-1.67,0.79-2.631,0.79
		c-2.68,0-4.859-2.18-4.859-4.87s2.18-4.87,4.859-4.87c2.681,0,4.861,2.18,4.861,4.87c0,0.96-0.281,1.86-0.771,2.63L50.652,20.845
		L50.652,20.845z M71.022,11.855c0.12,0,0.229,0.11,0.24,0.25v8.81c0.01,0.13-0.101,0.24-0.229,0.25h-0.011h-1.79
		c-0.141,0-0.25-0.1-0.25-0.24v-0.01v-8.81c0-0.13,0.1-0.24,0.23-0.25h0.02H71.022z M67.992,11.855c0.07,0,0.16,0.04,0.24,0.11
		c0.051,0.05,0.051,0.14,0.04,0.21l-2.97,8.83c-0.03,0.09-0.12,0.16-0.221,0.16h-1.609c-0.1,0-0.189-0.06-0.221-0.16l-1.729-5.15
		l-1.72,5.15c-0.04,0.09-0.131,0.16-0.23,0.16h-1.6c-0.11,0-0.2-0.06-0.23-0.16l-2.959-8.83c-0.021-0.07-0.021-0.14,0.029-0.21
		c0.04-0.07,0.12-0.11,0.189-0.11h2.011c0.1,0,0.19,0.07,0.22,0.18l1.59,5.22l1.74-5.22c0.04-0.09,0.13-0.16,0.23-0.16h1.41
		c0.109,0,0.189,0.05,0.229,0.16l1.739,5.22l1.591-5.22c0.03-0.1,0.12-0.17,0.22-0.18H67.992L67.992,11.855z M53.982,12.105v8.81
		c0,0.13-0.1,0.24-0.24,0.25h-0.01h-1.79c-0.13,0-0.239-0.1-0.25-0.24v-0.01v-8.81c0-0.13,0.11-0.24,0.24-0.25h0.01h1.79
		c0.13,0,0.24,0.11,0.25,0.24V12.105z"/>
</g>
</svg>
