<?xml version="1.0" encoding="utf-8"?>
<!-- Generator: Adobe Illustrator 16.0.0, SVG Export Plug-In . SVG Version: 6.00 Build 0)  -->
<!DOCTYPE svg PUBLIC "-//W3C//DTD SVG 1.1//EN" "http://www.w3.org/Graphics/SVG/1.1/DTD/svg11.dtd">
<svg version="1.1" id="Слой_1" xmlns="http://www.w3.org/2000/svg" xmlns:xlink="http://www.w3.org/1999/xlink" x="0px" y="0px"
	 width="86px" height="42px" viewBox="0 0 86 42" enable-background="new 0 0 86 42" xml:space="preserve">
<path fill-rule="evenodd" clip-rule="evenodd" fill="#FFFBEA" d="M13,0h60c7.18,0,13,5.82,13,13v16c0,7.18-5.82,13-13,13H13
	C5.82,42,0,36.18,0,29V13C0,5.82,5.82,0,13,0z"/>
<g>
	<path fill-rule="evenodd" clip-rule="evenodd" fill="#9D9D9C" d="M70.6,20.68c-0.67,1.72-2.74,2.95-5.039,2.95h-4.98v3.87h-4.51
		v-6.82H70.6z M44.27,14.5v7.67h0.371l3.149-6.31c0.61-1.25,1.91-1.36,1.91-1.36h4.5v13h-4.74v-7.67h-0.38L46,26.141
		c-0.62,1.25-1.98,1.359-1.98,1.359h-4.5v-13H44.27z M23.81,14.5c0.46,0,1.84-0.11,2.43,1.69c0.39,1.22,1.02,3.22,1.88,5.99h0.35
		c0.93-2.92,1.56-4.92,1.91-5.99c0.59-1.82,2.06-1.69,2.65-1.69h4.56v13h-4.64v-7.66h-0.32l-2.59,7.66h-3.49l-2.59-7.67h-0.31v7.67
		H19v-13H23.81z"/>
	<path fill="#9D9D9C" d="M65.77,14.5H55.83c0.24,2.9,2.96,5.37,5.77,5.37h9.311C71.45,17.47,69.6,14.5,65.77,14.5z"/>
</g>
</svg>
