<?xml version="1.0" encoding="utf-8"?>
<!-- Generator: Adobe Illustrator 16.2.0, SVG Export Plug-In . SVG Version: 6.00 Build 0)  -->
<!DOCTYPE svg PUBLIC "-//W3C//DTD SVG 1.1//EN" "http://www.w3.org/Graphics/SVG/1.1/DTD/svg11.dtd">
<svg version="1.1" id="Слой_1" xmlns="http://www.w3.org/2000/svg" xmlns:xlink="http://www.w3.org/1999/xlink" x="0px" y="0px"
	 width="25px" height="25px" viewBox="0 0 25 25" enable-background="new 0 0 25 25" xml:space="preserve">
<g>
	<path fill-rule="evenodd" clip-rule="evenodd" d="M22.859,22.859L20.79,22.29l-0.271,0.181c-1.069,0.699-2.319,1.069-3.6,1.069
		c-2.87,0-5.38-1.86-6.27-4.511c4.379-0.51,7.87-4,8.379-8.379c2.65,0.89,4.511,3.4,4.511,6.27c0,1.28-0.37,2.53-1.069,3.6
		L22.29,20.79L22.859,22.859z M4.92,16.18l-2.78,0.78l0.77-2.79l-0.18-0.279C1.9,12.6,1.46,11.09,1.46,9.55
		c0-4.46,3.63-8.09,8.09-8.09c4.45,0,8.08,3.63,8.08,8.09c0,4.45-3.63,8.08-8.08,8.08c-1.55,0-3.05-0.44-4.35-1.271L4.92,16.18z
		 M25,16.92c0-3.65-2.46-6.83-5.92-7.79C18.859,4.06,14.67,0,9.55,0C4.28,0,0,4.28,0,9.55c0,1.71,0.46,3.38,1.32,4.851l-1.28,4.66
		l4.65-1.291c1.35,0.801,2.87,1.24,4.44,1.311c0.96,3.46,4.14,5.92,7.79,5.92c1.45,0,2.87-0.391,4.109-1.12l3.931,1.08l-1.08-3.931
		C24.609,19.79,25,18.37,25,16.92z"/>
	<rect x="8.81" y="13.23" width="1.47" height="1.47"/>
	<path fill-rule="evenodd" clip-rule="evenodd" d="M11.01,7.32c0,0.42-0.17,0.8-0.48,1.09L8.81,9.98v1.79h1.47v-1.14l1.24-1.14
		c0.61-0.56,0.96-1.35,0.96-2.17c0-1.61-1.32-2.93-2.93-2.93c-1.62,0-2.93,1.32-2.93,2.93h1.46c0-0.8,0.66-1.46,1.47-1.46
		C10.35,5.86,11.01,6.52,11.01,7.32z"/>
</g>
</svg>
