<?xml version="1.0" encoding="utf-8"?>
<!-- Generator: Adobe Illustrator 16.0.0, SVG Export Plug-In . SVG Version: 6.00 Build 0)  -->
<!DOCTYPE svg PUBLIC "-//W3C//DTD SVG 1.1//EN" "http://www.w3.org/Graphics/SVG/1.1/DTD/svg11.dtd">
<svg version="1.1" id="Слой_1" xmlns="http://www.w3.org/2000/svg" xmlns:xlink="http://www.w3.org/1999/xlink" x="0px" y="0px"
	 width="20px" height="35px" viewBox="0 0 20 35" enable-background="new 0 0 20 35" xml:space="preserve">
<path fill-rule="evenodd" clip-rule="evenodd" fill="#FFFFFF" d="M17.88,35c0.62-0.16,1.181-0.42,1.591-0.939
	c0.689-0.871,0.709-2.131,0.01-3c-0.141-0.17-0.28-0.33-0.44-0.48L6.25,17.821c-0.1-0.1-0.22-0.17-0.38-0.41
	c0.12-0.07,0.26-0.11,0.35-0.21l12.92-12.87c0.739-0.74,1.06-1.59,0.739-2.61c-0.26-0.81-0.8-1.34-1.61-1.6L17.88,0H17.2
	c-0.761,0.16-1.31,0.63-1.851,1.17C10.53,5.991,5.7,10.8,0.87,15.621c-0.76,0.75-1.09,1.63-0.72,2.659
	c0.13,0.371,0.37,0.74,0.66,1.021c4.96,4.969,9.94,9.93,14.911,14.889c0.42,0.42,0.92,0.66,1.479,0.811H17.88z"/>
</svg>
