<?xml version="1.0" encoding="utf-8"?>
<!-- Generator: Adobe Illustrator 16.0.0, SVG Export Plug-In . SVG Version: 6.00 Build 0)  -->
<!DOCTYPE svg PUBLIC "-//W3C//DTD SVG 1.1//EN" "http://www.w3.org/Graphics/SVG/1.1/DTD/svg11.dtd">
<svg version="1.1" id="Слой_1" xmlns="http://www.w3.org/2000/svg" xmlns:xlink="http://www.w3.org/1999/xlink" x="0px" y="0px"
	 width="37px" height="37px" viewBox="0 0 37 37" enable-background="new 0 0 37 37" xml:space="preserve">
<path fill-rule="evenodd" clip-rule="evenodd" fill="#FFD34F" d="M0,18.5C0,8.28,8.28,0,18.5,0C28.721,0,37,8.28,37,18.5
	C37,28.721,28.721,37,18.5,37C8.28,37,0,28.721,0,18.5z"/>
<g>
	<path fill-rule="evenodd" clip-rule="evenodd" fill="#010202" d="M15.75,22.45c-0.01-0.7-0.57-1.261-1.26-1.261
		c-0.7,0-1.26,0.58-1.26,1.281c0.01,0.699,0.58,1.26,1.27,1.26C15.19,23.721,15.75,23.15,15.75,22.45z M23.109,23.73
		c0.69-0.01,1.25-0.58,1.25-1.271c0-0.7-0.569-1.28-1.27-1.271c-0.689,0.011-1.25,0.59-1.24,1.281
		C21.859,23.17,22.42,23.73,23.109,23.73z M21.561,16.07h3.549c-0.409-0.82-0.81-1.63-1.219-2.43c-0.021-0.05-0.111-0.09-0.181-0.09
		c-0.351-0.01-0.71-0.01-1.069-0.01h-1.08V16.07z M28,22.62c-0.141,0.38-0.42,0.51-0.811,0.5c-0.489-0.011-0.989,0-1.479,0
		c-0.13-0.011-0.181,0.03-0.22,0.159C25.109,24.33,24.17,25.01,23.1,25c-1.09-0.01-2-0.67-2.379-1.73
		C20.68,23.15,20.63,23.12,20.5,23.12c-1.13,0-2.26,0-3.39-0.011c-0.15,0-0.2,0.061-0.25,0.19c-0.35,1-1.23,1.65-2.29,1.7
		c-1,0.04-1.96-0.529-2.36-1.5c-0.13-0.33-0.3-0.41-0.62-0.391c-0.37,0.031-0.75,0.021-1.13,0.011c-0.38-0.011-0.64-0.25-0.67-0.591
		c-0.02-0.389,0.24-0.67,0.66-0.689c0.31-0.01,0.61,0,0.92,0h0.59c0.23-0.38,0.39-0.75,0.64-1.05c1.26-1.47,3.62-1.011,4.26,0.819
		c0.06,0.19,0.14,0.23,0.33,0.23c1.08-0.01,2.169,0,3.26,0c0.149,0,0.22-0.029,0.271-0.189c0.35-1.051,1.309-1.74,2.379-1.74
		c1.09,0,2.051,0.699,2.391,1.76c0.05,0.141,0.109,0.18,0.25,0.17c0.32-0.01,0.65,0,1,0v-0.21c0-0.96,0.01-1.93,0-2.899
		c0-0.101-0.04-0.221-0.1-0.3c-0.23-0.31-0.48-0.61-0.701-0.92c-0.08-0.11-0.16-0.15-0.299-0.15l-4.561,0.01
		c-0.561,0-0.79-0.23-0.79-0.79v-4.04v-0.27h-0.261H10.58c-0.12,0-0.24,0-0.35-0.03c-0.29-0.08-0.46-0.35-0.44-0.67
		c0.03-0.29,0.25-0.52,0.54-0.56C10.41,11,10.5,11,10.58,11h10.16c0.6,0,0.81,0.22,0.81,0.82v0.45h0.22c0.78,0,1.551,0.01,2.33,0
		c0.371-0.01,0.61,0.14,0.771,0.48c0.51,1.03,1.03,2.06,1.53,3.1c0.199,0.4,0.42,0.77,0.699,1.11c0.221,0.27,0.43,0.54,0.641,0.82
		c0.1,0.15,0.17,0.31,0.26,0.46V22.62z"/>
	<path fill-rule="evenodd" clip-rule="evenodd" fill="#010202" d="M8,16.58c0.17-0.37,0.46-0.48,0.85-0.48
		c1.69,0.02,3.38,0.01,5.07,0.01c0.36,0,0.59,0.15,0.68,0.44c0.13,0.39-0.12,0.78-0.52,0.82c-0.08,0.01-0.15,0.01-0.23,0.01
		c-1.69,0-3.37,0-5.06,0.01c-0.38,0-0.65-0.13-0.79-0.49V16.58z"/>
	<path fill-rule="evenodd" clip-rule="evenodd" fill="#010202" d="M12.34,14.88H9.71c-0.45,0-0.75-0.35-0.66-0.77
		c0.06-0.28,0.28-0.48,0.56-0.49c0.23-0.01,0.47-0.01,0.7-0.01h4.65c0.41,0,0.68,0.23,0.7,0.59c0.02,0.39-0.25,0.68-0.66,0.68H12.34
		z"/>
	<path fill-rule="evenodd" clip-rule="evenodd" fill="#010202" d="M11.1,18.62c0.5,0,0.99-0.011,1.49,0.01
		c0.43,0.011,0.7,0.431,0.56,0.83c-0.1,0.271-0.3,0.42-0.58,0.431c-0.98,0.01-1.95,0.01-2.93,0C9.29,19.88,9.02,19.58,9.03,19.25
		c0-0.35,0.26-0.62,0.63-0.63C10.14,18.609,10.62,18.62,11.1,18.62L11.1,18.62z"/>
</g>
</svg>
