<?xml version="1.0" encoding="utf-8"?>
<!-- Generator: Adobe Illustrator 16.0.0, SVG Export Plug-In . SVG Version: 6.00 Build 0)  -->
<!DOCTYPE svg PUBLIC "-//W3C//DTD SVG 1.1//EN" "http://www.w3.org/Graphics/SVG/1.1/DTD/svg11.dtd">
<svg version="1.1" id="Слой_1" xmlns="http://www.w3.org/2000/svg" xmlns:xlink="http://www.w3.org/1999/xlink" x="0px" y="0px"
	 width="37px" height="37px" viewBox="0 0 37 37" enable-background="new 0 0 37 37" xml:space="preserve">
<path fill-rule="evenodd" clip-rule="evenodd" fill="#FFD34F" d="M0,18.5C0,8.28,8.28,0,18.5,0C28.721,0,37,8.28,37,18.5
	C37,28.721,28.721,37,18.5,37C8.28,37,0,28.721,0,18.5z"/>
<path fill-rule="evenodd" clip-rule="evenodd" fill="#010202" d="M17.496,25.57c0,0.59,0.49,1.08,1.07,1.09
	c0.59,0,1.06-0.471,1.05-1.061c0-0.64-0.471-1.129-1.07-1.119C17.956,24.48,17.486,24.971,17.496,25.57z M23.616,17.97v0.22v3.951
	c0,0.09-0.01,0.189,0.01,0.279c0,0.04,0.061,0.109,0.1,0.109c0.311,0,0.621,0.011,0.92-0.01c0.381-0.029,0.641-0.319,0.66-0.709
	c0.011-0.141,0-0.281,0-0.42V18.76c0-0.47-0.27-0.77-0.719-0.79C24.276,17.95,23.966,17.97,23.616,17.97z M12.606,17.97
	c-0.35,0-0.68-0.01-1.02,0.01c-0.37,0.02-0.65,0.31-0.66,0.7c-0.01,1.041-0.01,2.089,0,3.14c0.01,0.34,0.25,0.65,0.56,0.68
	c0.37,0.04,0.74,0.01,1.12,0.01V17.97z M18.456,10l0.51,0.07c2.131,0.32,3.721,1.46,4.78,3.37c0.5,0.91,0.74,1.9,0.771,2.94v0.23
	c0.18,0.02,0.34,0.03,0.49,0.07c0.92,0.2,1.59,1.03,1.6,2c0.01,1.041,0.01,2.08,0,3.12c-0.01,0.96-0.641,1.771-1.551,2.011
	c-0.1,0.02-0.149,0.06-0.18,0.17c-0.369,1.35-1.48,2.229-2.859,2.26c-0.34,0-0.68,0-1.03-0.01c-0.091,0-0.149,0.029-0.181,0.129
	c-0.359,1.07-1.379,1.74-2.449,1.631c-1.12-0.12-2.01-0.99-2.15-2.11c-0.16-1.229,0.61-2.37,1.8-2.68
	c1.139-0.29,2.34,0.36,2.75,1.51c0.06,0.14,0.119,0.2,0.279,0.19c0.33-0.01,0.66,0.01,0.99,0c0.689-0.03,1.189-0.36,1.52-1.03
	h-0.459c-0.531,0-0.781-0.25-0.781-0.8v-5.64c0-0.55,0.24-0.79,0.781-0.81l0.139-0.01c-0.049-1.86-0.77-3.36-2.27-4.37
	c-1.73-1.17-3.56-1.24-5.36-0.2c-1.7,0.99-2.52,2.56-2.59,4.57c0.13,0.01,0.24,0.01,0.35,0.03c0.3,0.04,0.51,0.26,0.55,0.56
	c0.01,0.07,0.02,0.15,0.02,0.23v5.64c0,0.209-0.03,0.42-0.18,0.58c-0.13,0.149-0.3,0.22-0.49,0.22c-0.59,0-1.19,0.021-1.78-0.021
	c-1.03-0.07-1.84-0.959-1.85-2.029c-0.01-1.051-0.01-2.1,0-3.14c0.01-1.09,0.83-1.97,1.88-2.05l0.18-0.01
	c0.04-0.4,0.07-0.79,0.13-1.17c0.15-0.97,0.52-1.86,1.07-2.66c0.69-1,1.58-1.75,2.67-2.24c0.65-0.29,1.33-0.47,2.03-0.52
	c0.07-0.01,0.13-0.02,0.19-0.03H18.456z"/>
</svg>
