<?xml version="1.0" encoding="utf-8"?>
<!-- Generator: Adobe Illustrator 16.0.0, SVG Export Plug-In . SVG Version: 6.00 Build 0)  -->
<!DOCTYPE svg PUBLIC "-//W3C//DTD SVG 1.1//EN" "http://www.w3.org/Graphics/SVG/1.1/DTD/svg11.dtd">
<svg version="1.1" id="Слой_1" xmlns="http://www.w3.org/2000/svg" xmlns:xlink="http://www.w3.org/1999/xlink" x="0px" y="0px"
	 width="18px" height="18px" viewBox="0 0 18 18" enable-background="new 0 0 18 18" xml:space="preserve">
<g>
	<path fill-rule="evenodd" clip-rule="evenodd" fill="#010202" d="M2.15,15.88l0.12-0.03c0.81-0.209,1.63-0.42,2.43-0.64
		c0.18-0.05,0.32-0.03,0.48,0.069c1.76,1.041,3.65,1.33,5.64,0.841c3.77-0.931,6.17-4.649,5.51-8.47c-0.65-3.78-4.24-6.7-8.46-6.05
		c-1.7,0.26-3.15,1.03-4.31,2.3C2.03,5.57,1.39,7.56,1.64,9.82c0.12,1.14,0.52,2.2,1.16,3.17c0.07,0.109,0.09,0.22,0.05,0.35
		c-0.09,0.27-0.16,0.551-0.23,0.83L2.15,15.88z M0,18l0.96-3.52c0.09-0.32,0.19-0.641,0.26-0.961c0.02-0.08,0.01-0.189-0.03-0.26
		c-0.84-1.529-1.23-3.17-1.09-4.9c0.22-2.93,1.57-5.23,4-6.88c1.62-1.09,3.44-1.6,5.39-1.46c3.529,0.26,6.15,1.99,7.63,5.19
		c1.44,3.13,1.09,6.19-0.92,8.99c-1.44,2.01-3.45,3.19-5.91,3.56c-1.9,0.28-3.71-0.05-5.43-0.92c-0.07-0.04-0.19-0.05-0.28-0.029
		l-4.37,1.14L0,18z"/>
	<path fill-rule="evenodd" clip-rule="evenodd" fill="#010202" d="M4.45,6.92c0.02-0.75,0.31-1.36,0.84-1.87
		C5.45,4.89,5.65,4.8,5.88,4.81c0.12,0,0.25,0.01,0.37,0c0.25-0.02,0.4,0.09,0.49,0.3c0.25,0.61,0.51,1.21,0.75,1.82
		C7.53,7.03,7.5,7.2,7.44,7.3C7.28,7.55,7.09,7.8,6.9,8.03c-0.13,0.16-0.15,0.3-0.04,0.48c0.73,1.21,1.74,2.1,3.06,2.62
		c0.189,0.08,0.34,0.05,0.46-0.11l0.66-0.819c0.16-0.19,0.25-0.24,0.47-0.14c0.631,0.279,1.27,0.59,1.891,0.899
		c0.08,0.04,0.14,0.181,0.14,0.28c-0.021,0.939-0.3,1.4-1.319,1.82c-0.58,0.239-1.171,0.18-1.771,0.02
		c-2.14-0.6-3.73-1.95-4.99-3.72c-0.4-0.55-0.75-1.13-0.91-1.8C4.5,7.35,4.49,7.13,4.45,6.92z"/>
</g>
</svg>
