<?xml version="1.0" encoding="utf-8"?>
<!-- Generator: Adobe Illustrator 16.0.0, SVG Export Plug-In . SVG Version: 6.00 Build 0)  -->
<!DOCTYPE svg PUBLIC "-//W3C//DTD SVG 1.1//EN" "http://www.w3.org/Graphics/SVG/1.1/DTD/svg11.dtd">
<svg version="1.1" id="Слой_1" xmlns="http://www.w3.org/2000/svg" xmlns:xlink="http://www.w3.org/1999/xlink" x="0px" y="0px"
	 width="18px" height="18px" viewBox="0 0 18 18" enable-background="new 0 0 18 18" xml:space="preserve">
<g>
	<path fill-rule="evenodd" clip-rule="evenodd" fill="#010202" d="M1.22,16.779l0.18-0.059c1.12-0.391,2.24-0.771,3.35-1.181
		c0.41-0.149,0.76-0.13,1.15,0.069C6.96,16.16,8.1,16.41,9.29,16.4c2.08-0.021,3.89-0.74,5.36-2.211
		c1.82-1.819,2.55-4.029,2.209-6.569c-0.219-1.65-0.93-3.08-2.109-4.25c-1.971-1.96-4.34-2.67-7.06-2.14
		C5.94,1.57,4.5,2.47,3.37,3.83C2.18,5.25,1.6,6.9,1.6,8.75c0,1.23,0.28,2.391,0.85,3.48C2.6,12.52,2.62,12.8,2.5,13.109
		c-0.24,0.65-0.46,1.311-0.69,1.971L1.22,16.779z M18,8.19v1.06c-0.01,0.05-0.029,0.1-0.029,0.15c-0.08,1.19-0.391,2.321-0.961,3.36
		c-1.4,2.57-3.55,4.131-6.439,4.6c-1.791,0.281-3.51,0-5.14-0.799C5.31,16.5,5.21,16.5,5.1,16.55l-2.57,0.89L0.98,18H0.63
		C0.31,17.88,0.1,17.66,0,17.33v-0.28l0.09-0.239c0.44-1.281,0.89-2.561,1.35-3.84C1.5,12.8,1.48,12.66,1.4,12.49
		c-0.58-1.19-0.86-2.45-0.85-3.78C0.56,6.53,1.28,4.6,2.72,2.97c1.35-1.53,3.04-2.48,5.05-2.83C8.09,0.08,8.42,0.04,8.75,0h1.06
		l0.34,0.04c1.55,0.17,2.97,0.69,4.229,1.61c1.89,1.4,3.06,3.24,3.479,5.55C17.92,7.53,17.95,7.86,18,8.19z"/>
	<path fill-rule="evenodd" clip-rule="evenodd" fill="#010202" d="M6.56,5.08C6.3,5.34,6.04,5.62,5.77,5.88
		c-0.21,0.18-0.26,0.4-0.23,0.66C5.59,7.02,5.77,7.46,6,7.88c0.94,1.67,2.24,2.979,3.87,3.979c0.44,0.261,0.89,0.471,1.39,0.57
		c0.25,0.051,0.52,0.11,0.711-0.07c0.329-0.289,0.629-0.629,0.92-0.93l-1.141-1.15c-0.15,0.16-0.311,0.341-0.48,0.511
		c-0.31,0.31-0.66,0.351-1.049,0.14C8.88,10.21,7.83,9.18,7.1,7.84C6.85,7.37,6.89,7.05,7.27,6.67c0.15-0.15,0.31-0.29,0.46-0.43
		L6.56,5.08z M8.05,7.37c0.62,1.12,1.47,1.96,2.591,2.59c0.119-0.13,0.239-0.27,0.369-0.4c0.48-0.48,1.08-0.47,1.57,0.01l1.05,1.06
		c0.5,0.49,0.49,1.091,0,1.591c-0.25,0.25-0.5,0.479-0.729,0.739c-0.48,0.521-1.07,0.63-1.73,0.521c-0.97-0.16-1.8-0.631-2.58-1.19
		c-1.34-0.97-2.47-2.149-3.33-3.58C4.91,8.12,4.62,7.5,4.52,6.82C4.41,6.16,4.53,5.57,5.05,5.1C5.3,4.87,5.54,4.61,5.79,4.36
		c0.49-0.48,1.09-0.48,1.57,0l1.08,1.08c0.47,0.47,0.47,1.07,0.01,1.54C8.32,7.11,8.19,7.23,8.05,7.37z"/>
</g>
</svg>
