<?xml version="1.0" encoding="utf-8"?>
<!-- Generator: Adobe Illustrator 16.0.0, SVG Export Plug-In . SVG Version: 6.00 Build 0)  -->
<!DOCTYPE svg PUBLIC "-//W3C//DTD SVG 1.1//EN" "http://www.w3.org/Graphics/SVG/1.1/DTD/svg11.dtd">
<svg version="1.1" id="Слой_1" xmlns="http://www.w3.org/2000/svg" xmlns:xlink="http://www.w3.org/1999/xlink" x="0px" y="0px"
	 width="86px" height="42px" viewBox="0 0 86 42" enable-background="new 0 0 86 42" xml:space="preserve">
<path fill-rule="evenodd" clip-rule="evenodd" fill="#FFFBEA" d="M13,0h60c7.18,0,13,5.82,13,13v16c0,7.18-5.82,13-13,13H13
	C5.82,42,0,36.18,0,29V13C0,5.82,5.82,0,13,0z"/>
<path fill="#9D9D9C" d="M74.735,18.785l-1.539,3.65c0,0.05-0.061,0.101-0.061,0.15l-0.05,0.1l-0.05-0.1
	c0-0.05-0.051-0.101-0.051-0.15l-1.549-3.65h-2.021l2.66,6.291l-1.12,2.379h2.029l3.721-8.669H74.735z"/>
<path fill="#9D9D9C" d="M59.836,19.135c-0.37-0.25-0.8-0.4-1.33-0.45c-0.899-0.1-1.75,0.2-2.29,0.81v-0.71h-1.8v6.291h1.8v-3.3
	c0-0.76,0.16-0.91,0.27-1.11c0.211-0.36,0.641-0.56,1.121-0.51c0.479,0,0.959,0.2,1.17,0.56c0.16,0.25,0.16,0.55,0.16,0.76v3.601
	h1.81v-3.811C60.746,20.255,60.427,19.595,59.836,19.135z"/>
<path fill-rule="evenodd" clip-rule="evenodd" fill="#9D9D9C" d="M51.437,21.975c0,0.561-0.221,1.021-0.59,1.32
	c-0.271,0.26-0.641,0.36-1.17,0.36c-0.48,0-0.851-0.15-1.171-0.36c-0.37-0.3-0.53-0.76-0.59-1.32c0-0.6,0.22-1.16,0.7-1.52
	c0.26-0.2,0.58-0.3,1.01-0.3c0.42,0,0.74,0.1,1.01,0.3C51.216,20.815,51.485,21.375,51.437,21.975z M50.956,18.835
	c-0.91-0.3-1.87-0.25-2.77,0.15c-0.641,0.26-1.121,0.71-1.49,1.27c-0.32,0.51-0.48,1.07-0.48,1.72c0,0.66,0.16,1.22,0.48,1.729
	c0.32,0.511,0.75,0.861,1.279,1.171c0.53,0.25,1.17,0.399,1.75,0.399c0.32,0,0.641-0.05,0.961-0.1c0.27-0.05,0.529-0.15,0.799-0.3
	c0.531-0.31,0.961-0.66,1.281-1.12c0.319-0.51,0.479-1.07,0.479-1.72C53.187,20.505,52.336,19.345,50.956,18.835z"/>
<path fill="#9D9D9C" d="M44.146,19.135c-0.319-0.25-0.8-0.4-1.33-0.45h-0.32c-0.75,0-1.33,0.3-1.87,0.91l-0.1,0.1h-0.21
	c-0.16-0.2-0.32-0.4-0.54-0.51c-0.32-0.3-0.74-0.45-1.27-0.5c-0.85-0.1-1.55,0.15-2.13,0.76v-0.66h-1.81v6.291h1.81v-3.3v-0.05
	c0-0.71,0.1-0.86,0.21-1.06c0.21-0.36,0.64-0.56,1.07-0.56c0.42,0,0.85,0.2,1.06,0.56c0.16,0.25,0.16,0.55,0.16,0.86v3.5h1.86v-3.35
	c0-0.61,0.11-0.86,0.21-1.07c0.22-0.35,0.64-0.5,1.07-0.5c0.42,0,0.8,0.25,1.009,0.56c0.111,0.2,0.16,0.45,0.16,0.65v0.26v3.5h1.811
	v-3.811c0-0.35-0.06-0.66-0.11-0.96C44.776,19.795,44.517,19.395,44.146,19.135z"/>
<path fill-rule="evenodd" clip-rule="evenodd" fill="#9D9D9C" d="M64.466,20.505c0.27-0.2,0.59-0.3,1.01-0.3
	c0.431,0,0.75,0.1,1.01,0.3c0.271,0.21,0.48,0.46,0.591,0.82h-3.25C63.985,20.965,64.206,20.715,64.466,20.505z M67.606,23.145
	c-0.26,0.25-0.9,0.71-1.75,0.761c-0.7,0-1.28-0.15-1.65-0.561c-0.16-0.2-0.32-0.399-0.38-0.66h5.06v-0.05
	c0.051-0.25,0.051-0.5,0.051-0.71c0-0.2-0.051-0.5-0.16-0.91c-0.211-0.71-0.641-1.27-1.221-1.72c-0.64-0.46-1.279-0.61-1.439-0.61
	c-1.33-0.21-2.82,0.35-3.561,1.52c-0.539,0.81-0.539,1.62-0.479,1.88c0,0.3,0.05,1.26,0.851,2.08c0.899,0.96,2.229,1.01,2.659,1.06
	c1.81,0.05,3.03-1.01,3.3-1.271L67.606,23.145z"/>
<path fill-rule="evenodd" clip-rule="evenodd" fill="#9D9D9C" d="M22.006,24.265c-1.49,0-2.76-1.17-2.76-2.59s1.22-2.59,2.76-2.59
	c1.55,0,2.77,1.17,2.77,2.59C24.726,23.095,23.556,24.265,22.006,24.265z M22.006,14.675c-4.09,0-7.34,3.14-7.34,7
	c0,3.859,3.3,7,7.34,7c4.05,0,7.34-3.141,7.34-7C29.406,17.815,26.056,14.675,22.006,14.675z"/>
<polygon fill="#9D9D9C" points="14.666,16.755 14.666,26.954 12.056,26.954 8.706,16.755 "/>
</svg>
