<?xml version="1.0" encoding="utf-8"?>
<!-- Generator: Adobe Illustrator 16.0.0, SVG Export Plug-In . SVG Version: 6.00 Build 0)  -->
<!DOCTYPE svg PUBLIC "-//W3C//DTD SVG 1.1//EN" "http://www.w3.org/Graphics/SVG/1.1/DTD/svg11.dtd">
<svg version="1.1" id="Слой_1" xmlns="http://www.w3.org/2000/svg" xmlns:xlink="http://www.w3.org/1999/xlink" x="0px" y="0px"
	 width="86px" height="42px" viewBox="0 0 86 42" enable-background="new 0 0 86 42" xml:space="preserve">
<path fill-rule="evenodd" clip-rule="evenodd" fill="#FFFBEA" d="M13,0h60c7.18,0,13,5.82,13,13v16c0,7.18-5.82,13-13,13H13
	C5.82,42,0,36.18,0,29V13C0,5.82,5.82,0,13,0z"/>
<polygon fill="#9D9D9C" points="66.15,14.605 66.15,21.945 63.46,21.945 63.46,16.795 60.859,16.795 60.859,21.945 58.17,21.945 
	58.17,14.605 66.15,14.605 "/>
<path fill-rule="evenodd" clip-rule="evenodd" fill="#9D9D9C" d="M52.65,17.035c0.899,0,1.52,0.58,1.52,1.55
	c0,0.88-0.561,1.61-1.52,1.61c-0.92,0-1.541-0.67-1.541-1.59C51.109,17.625,51.73,17.035,52.65,17.035z M52.641,22.205
	c2.409,0,4.199-1.44,4.199-3.62c0-2.11-1.32-3.48-3.529-3.48c-1.021,0-1.86,0.35-2.5,0.96c0.16-1.25,1.239-2.16,2.43-2.16h2.34
	l1.17-2.18c0,0-2.59,0.06-3.8,0.06c-2.761,0.05-4.63,2.48-4.63,5.45C48.32,20.685,50.141,22.205,52.641,22.205z"/>
<path fill="#9D9D9C" d="M46.13,19.485c0,0-0.64,0.36-1.59,0.43c-1.09,0.03-2.06-0.64-2.06-1.83c0-1.17,0.859-1.83,2.039-1.83
	c0.721,0,1.681,0.48,1.681,0.48s0.7-1.24,1.06-1.87c-0.67-0.49-1.55-0.76-2.58-0.76c-2.6,0-4.609,1.65-4.609,3.96
	c0,2.34,1.89,3.951,4.609,3.9c0.76-0.029,1.811-0.29,2.45-0.68L46.13,19.485z"/>
<polygon fill="#9D9D9C" points="13,12.575 16.74,19.065 16.74,23.025 13,29.516 "/>
<polygon fill="#9D9D9C" points="27.35,16.705 30.85,14.615 38.02,14.615 27.35,20.965 "/>
<polygon fill="#9D9D9C" points="27.33,12.535 27.35,21.135 23.6,18.895 23.6,6.045 27.33,12.535 "/>
<polygon fill="#9D9D9C" points="38.02,14.615 30.85,14.615 27.33,12.535 23.6,6.045 38.02,14.615 "/>
<polygon fill="#9D9D9C" points="27.35,29.545 27.35,25.375 23.6,23.186 23.609,36.045 "/>
<polygon fill="#9D9D9C" points="30.84,27.475 16.74,19.065 13,12.575 38,27.475 30.84,27.475 "/>
<polygon fill="#9D9D9C" points="23.609,36.045 27.35,29.545 30.84,27.475 38,27.475 "/>
<polygon fill="#9D9D9C" points="13,29.516 23.63,23.186 20.061,21.045 16.74,23.025 "/>
<path fill-rule="evenodd" clip-rule="evenodd" fill="#9D9D9C" d="M47.16,24.295h1.76v0.33h-0.71v1.52h-0.34v-1.52h-0.71V24.295
	L47.16,24.295z M46.99,25.875c-0.09,0.109-0.2,0.189-0.32,0.24c-0.141,0.05-0.279,0.07-0.42,0.07c-0.15,0.01-0.29-0.021-0.42-0.061
	c-0.12-0.051-0.24-0.109-0.33-0.2c-0.09-0.09-0.16-0.19-0.21-0.31c-0.05-0.12-0.08-0.26-0.08-0.391c0-0.14,0.03-0.26,0.08-0.38
	s0.11-0.22,0.2-0.31c0.09-0.08,0.189-0.15,0.31-0.2c0.12-0.06,0.25-0.08,0.39-0.08c0.15,0,0.301,0.021,0.431,0.06
	c0.13,0.03,0.239,0.101,0.33,0.181l-0.16,0.26c-0.08-0.06-0.17-0.12-0.261-0.149c-0.1-0.031-0.189-0.041-0.289-0.041
	c-0.17,0-0.34,0.061-0.461,0.181c-0.069,0.06-0.119,0.13-0.149,0.21c-0.04,0.08-0.05,0.17-0.05,0.27s0.02,0.19,0.05,0.271
	c0.04,0.079,0.091,0.149,0.149,0.21c0.07,0.061,0.141,0.1,0.221,0.13c0.09,0.03,0.18,0.05,0.27,0.05c0.121,0,0.221-0.029,0.32-0.07
	c0.09-0.039,0.17-0.1,0.23-0.17L46.99,25.875z M42.92,26.145v-1.85h0.35v1.38l1.11-1.38h0.341v1.85H44.38v-1.379l-1.11,1.379H42.92
	L42.92,26.145z M42.48,25.875c-0.08,0.109-0.19,0.18-0.32,0.24c-0.141,0.05-0.28,0.07-0.42,0.07c-0.15,0.01-0.29-0.021-0.42-0.061
	c-0.12-0.051-0.23-0.109-0.33-0.2c-0.09-0.09-0.16-0.19-0.211-0.31c-0.049-0.12-0.079-0.26-0.069-0.391
	c0-0.14,0.021-0.26,0.069-0.38c0.051-0.12,0.121-0.22,0.201-0.31c0.09-0.08,0.189-0.15,0.31-0.2s0.25-0.08,0.39-0.08
	c0.16,0,0.301,0.021,0.43,0.06c0.131,0.03,0.24,0.101,0.33,0.181l-0.16,0.26c-0.079-0.06-0.17-0.12-0.26-0.149
	c-0.1-0.031-0.189-0.041-0.289-0.041c-0.09,0-0.17,0.021-0.25,0.051c-0.08,0.029-0.15,0.07-0.211,0.13
	c-0.06,0.06-0.109,0.13-0.149,0.21c-0.03,0.08-0.05,0.17-0.05,0.27s0.02,0.19,0.06,0.271c0.03,0.079,0.08,0.149,0.14,0.21
	c0.07,0.061,0.141,0.1,0.23,0.13c0.08,0.03,0.17,0.05,0.26,0.05c0.12,0,0.23-0.029,0.32-0.07c0.09-0.039,0.17-0.1,0.24-0.17
	L42.48,25.875z"/>
<path fill-rule="evenodd" clip-rule="evenodd" fill="#9D9D9C" d="M49.65,24.705c0.1-0.1,0.25-0.141,0.42-0.141s0.3,0.041,0.4,0.131
	c0.1,0.09,0.149,0.209,0.159,0.359h-1.17C49.48,24.915,49.54,24.795,49.65,24.705z M50.51,26.125c0.131-0.04,0.24-0.1,0.34-0.18
	l-0.1-0.26c-0.07,0.06-0.15,0.1-0.25,0.139c-0.109,0.041-0.221,0.051-0.35,0.051c-0.18,0-0.34-0.04-0.461-0.141
	c-0.129-0.1-0.189-0.239-0.209-0.41h1.479c0.021-0.069,0.021-0.139,0.021-0.219c0-0.131-0.021-0.25-0.07-0.351
	c-0.04-0.101-0.11-0.19-0.189-0.271c-0.08-0.069-0.181-0.129-0.281-0.17c-0.109-0.039-0.229-0.06-0.35-0.06
	c-0.16,0-0.3,0.021-0.43,0.069c-0.11,0.051-0.221,0.121-0.311,0.211c-0.08,0.09-0.149,0.189-0.189,0.31s-0.07,0.25-0.07,0.37
	c0,0.15,0.03,0.28,0.08,0.4c0.04,0.119,0.12,0.22,0.21,0.31c0.08,0.08,0.19,0.149,0.32,0.19c0.14,0.05,0.28,0.07,0.43,0.07
	C50.26,26.186,50.391,26.165,50.51,26.125z"/>
<polygon fill="#9D9D9C" points="51.45,24.295 51.76,24.295 52.5,25.215 53.2,24.295 53.5,24.295 53.5,26.145 53.16,26.145 
	53.16,24.795 52.5,25.654 52.48,25.654 51.79,24.795 51.79,26.145 51.45,26.145 "/>
<path fill-rule="evenodd" clip-rule="evenodd" fill="#9D9D9C" d="M59.77,25.154v0.681h0.25c0.17,0,0.291-0.03,0.36-0.08
	c0.07-0.06,0.101-0.149,0.101-0.26s-0.041-0.19-0.11-0.25c-0.07-0.06-0.19-0.091-0.351-0.091H59.77L59.77,25.154z M59.42,24.295
	h0.35v0.55h0.311c0.15,0,0.27,0.021,0.37,0.06c0.1,0.031,0.18,0.08,0.229,0.141c0.061,0.061,0.1,0.13,0.131,0.2
	c0.02,0.079,0.029,0.159,0.029,0.239c0,0.09-0.01,0.17-0.04,0.24c-0.021,0.08-0.069,0.15-0.13,0.211
	c-0.061,0.069-0.141,0.119-0.25,0.149c-0.1,0.04-0.23,0.06-0.38,0.06h-0.62V24.295L59.42,24.295z M61.55,24.295h-0.34v1.85h0.34
	V24.295z M57.34,25.425c-0.04-0.11-0.05-0.22-0.05-0.33c0.01-0.06,0.04-0.12,0.08-0.17c0.03-0.06,0.08-0.11,0.14-0.149
	c0.12-0.101,0.28-0.15,0.44-0.15c0.2,0,0.36,0.061,0.46,0.18c0.109,0.12,0.16,0.27,0.16,0.45c0,0.09-0.021,0.17-0.051,0.24
	c-0.06,0.149-0.18,0.271-0.33,0.329c-0.08,0.041-0.16,0.051-0.25,0.051c-0.1,0-0.189-0.01-0.27-0.051
	c-0.08-0.039-0.15-0.09-0.199-0.159C57.41,25.595,57.359,25.516,57.34,25.425z M58.54,23.645c0.069-0.029,0.13-0.09,0.19-0.16
	l-0.181-0.26c-0.05,0.061-0.1,0.1-0.159,0.131c-0.07,0.02-0.141,0.039-0.201,0.049l-0.069,0.011l-0.181,0.03
	c-0.1,0.02-0.209,0.05-0.299,0.09c-0.16,0.07-0.281,0.16-0.371,0.27c-0.1,0.11-0.17,0.23-0.22,0.37s-0.079,0.28-0.1,0.431
	c-0.021,0.149-0.03,0.289-0.03,0.43c0,0.18,0.03,0.34,0.07,0.48c0.05,0.139,0.119,0.26,0.21,0.359c0.09,0.1,0.19,0.18,0.319,0.23
	c0.121,0.06,0.26,0.08,0.42,0.08c0.15,0,0.281-0.021,0.4-0.07c0.12-0.051,0.221-0.12,0.311-0.211c0.09-0.09,0.16-0.189,0.209-0.299
	c0.051-0.121,0.07-0.24,0.07-0.371c0-0.14-0.02-0.26-0.06-0.379c-0.04-0.101-0.101-0.201-0.181-0.291
	c-0.08-0.08-0.18-0.14-0.279-0.18c-0.12-0.05-0.25-0.07-0.381-0.07c-0.079,0-0.159,0.01-0.239,0.03
	c-0.069,0.021-0.14,0.05-0.21,0.091c-0.07,0.039-0.13,0.08-0.18,0.139c-0.051,0.051-0.101,0.111-0.131,0.171h-0.01
	c0.01-0.08,0.02-0.171,0.04-0.261s0.05-0.17,0.091-0.26c0.029-0.08,0.08-0.15,0.139-0.22c0.061-0.06,0.141-0.12,0.221-0.149
	c0.1-0.051,0.2-0.08,0.3-0.101l0.07-0.01l0.19-0.03C58.391,23.695,58.471,23.675,58.54,23.645L58.54,23.645z M55.01,25.805
	c-0.08,0.051-0.18,0.07-0.31,0.07c-0.11,0-0.2-0.02-0.261-0.07c-0.06-0.06-0.09-0.13-0.09-0.22c0-0.05,0.01-0.09,0.041-0.13
	c0.02-0.04,0.049-0.07,0.09-0.1c0.039-0.021,0.09-0.041,0.129-0.051c0.051-0.02,0.101-0.02,0.15-0.02c0.17,0,0.32,0.039,0.44,0.119
	v0.23C55.141,25.705,55.08,25.755,55.01,25.805L55.01,25.805z M54.439,24.305c-0.109,0.02-0.209,0.061-0.299,0.12l0.09,0.261
	c0.08-0.041,0.16-0.07,0.24-0.101c0.069-0.021,0.17-0.04,0.289-0.04c0.1,0,0.17,0.02,0.23,0.05c0.06,0.03,0.1,0.07,0.13,0.12
	c0.03,0.051,0.05,0.109,0.06,0.18c0.021,0.08,0.021,0.15,0.021,0.24c-0.07-0.05-0.15-0.08-0.229-0.09
	c-0.091-0.02-0.171-0.029-0.25-0.029c-0.101,0-0.201,0.02-0.291,0.039c-0.09,0.03-0.17,0.061-0.229,0.11s-0.12,0.12-0.15,0.19
	c-0.04,0.08-0.06,0.16-0.06,0.25c0,0.18,0.06,0.319,0.16,0.42c0.109,0.1,0.25,0.149,0.43,0.149c0.16,0,0.29-0.03,0.391-0.08
	c0.1-0.05,0.17-0.12,0.229-0.19v0.24h0.319v-1.129c0-0.24-0.049-0.431-0.16-0.561c-0.109-0.131-0.31-0.2-0.58-0.2
	C54.66,24.255,54.55,24.275,54.439,24.305z"/>
<path fill-rule="evenodd" clip-rule="evenodd" fill="#9D9D9C" d="M63.99,24.295h1.76v0.33h-0.71v1.52H64.7v-1.52h-0.71V24.295
	L63.99,24.295z M63.82,25.875c-0.09,0.109-0.2,0.18-0.33,0.24c-0.131,0.05-0.27,0.07-0.41,0.07c-0.15,0.01-0.29-0.021-0.42-0.061
	c-0.131-0.051-0.24-0.109-0.33-0.2c-0.09-0.09-0.16-0.19-0.21-0.31c-0.05-0.12-0.08-0.26-0.08-0.391c0-0.14,0.03-0.26,0.08-0.38
	c0.04-0.12,0.11-0.22,0.2-0.31c0.09-0.08,0.189-0.15,0.31-0.2c0.12-0.06,0.25-0.08,0.39-0.08c0.15,0,0.301,0.021,0.431,0.06
	c0.13,0.03,0.239,0.101,0.329,0.181l-0.159,0.26c-0.08-0.06-0.17-0.12-0.271-0.149c-0.09-0.031-0.189-0.041-0.279-0.041
	s-0.17,0.021-0.25,0.051c-0.08,0.029-0.15,0.07-0.211,0.13c-0.069,0.06-0.119,0.13-0.149,0.21c-0.04,0.08-0.05,0.17-0.05,0.27
	s0.02,0.19,0.05,0.271c0.04,0.079,0.09,0.149,0.149,0.21c0.061,0.061,0.141,0.1,0.221,0.13c0.09,0.03,0.18,0.05,0.27,0.05
	c0.121,0,0.221-0.029,0.311-0.07c0.09-0.039,0.18-0.1,0.24-0.17L63.82,25.875z"/>
<path fill-rule="evenodd" clip-rule="evenodd" fill="#9D9D9C" d="M68.84,25.154v0.681h0.25c0.17,0,0.29-0.03,0.36-0.08
	c0.069-0.06,0.11-0.149,0.11-0.26s-0.041-0.19-0.11-0.25c-0.07-0.06-0.19-0.091-0.36-0.091H68.84L68.84,25.154z M68.5,24.295h0.34
	v0.55h0.311c0.149,0,0.27,0.021,0.369,0.06c0.101,0.031,0.181,0.08,0.24,0.141c0.051,0.061,0.1,0.13,0.12,0.2
	c0.021,0.079,0.04,0.159,0.04,0.239c0,0.09-0.02,0.17-0.04,0.24c-0.03,0.08-0.08,0.15-0.14,0.211
	c-0.061,0.069-0.141,0.119-0.24,0.149c-0.109,0.04-0.23,0.06-0.38,0.06h-0.63v-1.85H68.5z M70.63,24.295h-0.34v1.85h0.34V24.295z
	 M66.7,24.635c0.1-0.05,0.2-0.07,0.319-0.07c0.101,0,0.181,0.01,0.26,0.041c0.08,0.029,0.15,0.08,0.201,0.14
	c0.06,0.05,0.1,0.12,0.119,0.2c0.03,0.08,0.041,0.16,0.041,0.26s-0.011,0.189-0.041,0.27c-0.029,0.08-0.08,0.15-0.14,0.211
	c-0.05,0.06-0.13,0.109-0.21,0.139c-0.08,0.041-0.18,0.061-0.27,0.051c-0.101,0-0.181-0.01-0.271-0.03s-0.17-0.06-0.25-0.11v-0.92
	C66.52,24.745,66.6,24.686,66.7,24.635z M66.46,24.295h-0.34v2.67h0.34v-0.9c0.069,0.041,0.149,0.07,0.25,0.09
	c0.09,0.021,0.19,0.031,0.29,0.031c0.15,0,0.29-0.021,0.41-0.07c0.119-0.051,0.23-0.131,0.32-0.211
	c0.09-0.09,0.16-0.199,0.199-0.319c0.051-0.12,0.08-0.25,0.08-0.39c0-0.141-0.029-0.271-0.07-0.381
	c-0.039-0.109-0.1-0.209-0.18-0.299c-0.07-0.08-0.17-0.15-0.27-0.191c-0.12-0.049-0.25-0.069-0.37-0.069
	c-0.14,0-0.261,0.021-0.38,0.069c-0.12,0.051-0.221,0.111-0.28,0.191V24.295z"/>
<path fill-rule="evenodd" clip-rule="evenodd" fill="#9D9D9C" d="M44.51,29.455h-0.68l-0.02,0.311
	c-0.021,0.27-0.051,0.479-0.101,0.639c-0.05,0.16-0.101,0.291-0.17,0.371c-0.06,0.09-0.14,0.149-0.22,0.18
	c-0.09,0.029-0.19,0.05-0.28,0.05l-0.03-0.319c0.04,0,0.08-0.011,0.131-0.031c0.049-0.02,0.09-0.069,0.139-0.139
	c0.041-0.07,0.091-0.171,0.121-0.291c0.039-0.14,0.06-0.31,0.08-0.52l0.029-0.58h1.34v1.85h-0.34V29.455L44.51,29.455z"/>
<polygon fill-rule="evenodd" clip-rule="evenodd" fill="#9D9D9C" points="42.23,29.436 41.18,29.436 41.18,30.975 40.83,30.975 
	40.83,29.125 42.57,29.125 42.57,30.975 42.23,30.975 "/>
<polygon fill-rule="evenodd" clip-rule="evenodd" fill="#9D9D9C" points="72.27,25.186 73,26.145 72.58,26.145 72.02,25.395 
	71.439,26.145 71.04,26.145 71.77,25.205 71.09,24.295 71.51,24.295 72.029,24.995 72.561,24.295 72.96,24.295 "/>
<path fill-rule="evenodd" clip-rule="evenodd" fill="#9D9D9C" d="M46.35,30.625c-0.08,0.061-0.18,0.08-0.31,0.08
	c-0.11,0-0.2-0.02-0.261-0.08c-0.059-0.051-0.09-0.12-0.09-0.21c0-0.05,0.011-0.091,0.041-0.13c0.02-0.04,0.049-0.07,0.09-0.1
	c0.039-0.021,0.08-0.041,0.13-0.051c0.05-0.02,0.1-0.02,0.149-0.02c0.17,0,0.32,0.039,0.44,0.119v0.23
	C46.48,30.535,46.42,30.585,46.35,30.625z M45.77,29.135c-0.109,0.02-0.209,0.07-0.289,0.12l0.09,0.261
	c0.08-0.041,0.15-0.07,0.229-0.101c0.08-0.021,0.181-0.04,0.3-0.04c0.09,0,0.17,0.02,0.23,0.05s0.1,0.07,0.13,0.12
	s0.05,0.109,0.06,0.18c0.01,0.08,0.021,0.15,0.021,0.24c-0.069-0.05-0.149-0.08-0.24-0.09c-0.079-0.02-0.159-0.03-0.239-0.03
	c-0.11,0-0.201,0.021-0.291,0.04c-0.09,0.03-0.17,0.061-0.229,0.11c-0.069,0.05-0.12,0.12-0.16,0.19
	c-0.03,0.08-0.05,0.159-0.05,0.25c0,0.18,0.05,0.319,0.16,0.42c0.109,0.1,0.25,0.149,0.43,0.149c0.16,0,0.29-0.03,0.38-0.08
	c0.101-0.05,0.181-0.12,0.24-0.19v0.24h0.319v-1.13c0-0.239-0.06-0.43-0.17-0.56c-0.109-0.131-0.299-0.2-0.569-0.2
	c-0.12,0-0.24,0.021-0.351,0.04V29.135z"/>
<polygon fill="#9D9D9C" points="47.189,29.125 48.95,29.125 48.95,29.455 48.24,29.455 48.24,30.975 47.9,30.975 47.9,29.455 
	47.189,29.455 47.189,29.125 "/>
<path fill-rule="evenodd" clip-rule="evenodd" fill="#9D9D9C" d="M56.42,29.125v1.85h0.34l1.11-1.38v1.38h0.34v-1.85h-0.34
	l-1.11,1.38v-1.38H56.42z M57.34,28.505c-0.199,0-0.311-0.11-0.33-0.33h-0.32c0,0.091,0.021,0.16,0.041,0.229
	c0.029,0.07,0.069,0.131,0.129,0.181c0.051,0.05,0.121,0.09,0.201,0.13c0.08,0.03,0.17,0.04,0.279,0.04c0.1,0,0.18-0.01,0.26-0.04
	c0.08-0.029,0.141-0.08,0.2-0.13s0.101-0.11,0.13-0.181c0.03-0.069,0.041-0.139,0.041-0.229h-0.32
	C57.641,28.395,57.529,28.505,57.34,28.505z M54.62,29.535c0.101-0.1,0.239-0.141,0.42-0.141c0.17,0,0.3,0.041,0.399,0.131
	c0.101,0.09,0.15,0.209,0.16,0.359h-1.17C54.45,29.745,54.51,29.625,54.62,29.535z M55.49,30.955c0.119-0.04,0.24-0.1,0.33-0.18
	l-0.1-0.26c-0.07,0.059-0.15,0.1-0.25,0.139c-0.101,0.041-0.221,0.061-0.341,0.061c-0.19,0-0.351-0.05-0.47-0.15
	c-0.131-0.1-0.189-0.229-0.21-0.41h1.479c0.021-0.06,0.021-0.139,0.021-0.219c0-0.131-0.021-0.24-0.07-0.351
	c-0.04-0.101-0.11-0.19-0.19-0.271c-0.08-0.069-0.18-0.129-0.279-0.17c-0.11-0.039-0.23-0.06-0.35-0.06
	c-0.16,0-0.301,0.03-0.431,0.08c-0.11,0.04-0.22,0.11-0.3,0.2c-0.09,0.09-0.16,0.189-0.2,0.31s-0.069,0.25-0.06,0.38
	c0,0.141,0.02,0.28,0.07,0.391c0.049,0.119,0.119,0.22,0.209,0.31s0.19,0.149,0.32,0.2c0.141,0.04,0.28,0.07,0.43,0.061
	C55.23,31.016,55.359,30.995,55.49,30.955z M53.92,30.975l-0.75-0.959l0.7-0.891h-0.42l-0.671,0.891l0.721,0.959H53.92z
	 M52.359,29.125H52.7v1.85h-0.341V29.125z M51.18,29.125h0.43l0.66,0.891l-0.699,0.959h-0.42l0.74-0.959L51.18,29.125z
	 M49.68,29.535c0.1-0.1,0.24-0.141,0.42-0.141c0.17,0,0.301,0.041,0.4,0.131s0.15,0.209,0.16,0.359h-1.17
	C49.5,29.745,49.57,29.625,49.68,29.535z M50.54,30.955c0.13-0.04,0.239-0.1,0.34-0.18l-0.101-0.26
	c-0.069,0.059-0.149,0.1-0.25,0.139c-0.1,0.041-0.219,0.061-0.35,0.061c-0.18,0-0.34-0.05-0.459-0.15
	c-0.131-0.1-0.191-0.229-0.211-0.41h1.48c0.02-0.06,0.02-0.139,0.02-0.219c0-0.131-0.02-0.24-0.07-0.351
	c-0.039-0.101-0.109-0.19-0.189-0.271c-0.08-0.069-0.18-0.129-0.279-0.17c-0.111-0.039-0.23-0.06-0.351-0.06
	c-0.16,0-0.3,0.03-0.431,0.08c-0.109,0.04-0.219,0.11-0.31,0.2c-0.08,0.09-0.149,0.189-0.19,0.31c-0.039,0.12-0.069,0.25-0.069,0.38
	c0,0.141,0.03,0.28,0.08,0.391c0.05,0.119,0.12,0.22,0.21,0.31c0.08,0.09,0.189,0.149,0.32,0.2c0.14,0.04,0.279,0.07,0.43,0.061
	C50.279,31.016,50.41,30.995,50.54,30.955L50.54,30.955z"/>
</svg>
