<?xml version="1.0" encoding="utf-8"?>
<!-- Generator: Adobe Illustrator 16.0.0, SVG Export Plug-In . SVG Version: 6.00 Build 0)  -->
<!DOCTYPE svg PUBLIC "-//W3C//DTD SVG 1.1//EN" "http://www.w3.org/Graphics/SVG/1.1/DTD/svg11.dtd">
<svg version="1.1" id="Слой_1" xmlns="http://www.w3.org/2000/svg" xmlns:xlink="http://www.w3.org/1999/xlink" x="0px" y="0px"
	 width="50px" height="50px" viewBox="0 0 50 50" enable-background="new 0 0 50 50" xml:space="preserve">
<path fill="#71B400" d="M0,25C0,11.19,11.19,0,25,0c13.811,0,25,11.19,25,25c0,13.811-11.189,25-25,25C11.19,50,0,38.811,0,25z"/>
<path fill-rule="evenodd" clip-rule="evenodd" fill="#FFFFFF" d="M18.547,23.84c1.542,3.528,4.066,6.057,7.603,7.619
	c0.438-0.652,0.858-1.301,1.303-1.931c0.181-0.255,0.385-0.511,0.631-0.696c0.84-0.634,1.77-0.736,2.691-0.23
	c1.154,0.636,2.278,1.329,3.401,2.02c0.665,0.409,0.952,1.14,0.807,1.909c-0.593,3.132-3.815,5.188-6.872,4.272
	c-7.638-2.287-12.631-7.276-14.914-14.918c-0.923-3.092,1.192-6.349,4.366-6.877c0.772-0.128,1.415,0.153,1.826,0.812
	c0.694,1.109,1.364,2.235,2.004,3.377c0.63,1.124,0.299,2.479-0.759,3.234c-0.591,0.421-1.206,0.811-1.809,1.215
	C18.739,23.703,18.654,23.765,18.547,23.84z"/>
<path fill-rule="evenodd" clip-rule="evenodd" fill="#FFFFFF" d="M34.725,23.16c0,0.134,0.008,0.269-0.001,0.401
	c-0.03,0.524-0.423,0.899-0.931,0.895c-0.496-0.006-0.885-0.373-0.896-0.892c-0.031-1.229-0.318-2.388-0.992-3.424
	c-1.26-1.934-3.057-2.936-5.361-3.028c-0.567-0.022-0.941-0.325-0.991-0.797c-0.063-0.599,0.356-1.058,0.979-1.038
	c2.895,0.094,5.179,1.326,6.814,3.716C34.202,20.243,34.638,21.646,34.725,23.16z"/>
<path fill-rule="evenodd" clip-rule="evenodd" fill="#FFFFFF" d="M26.582,18.951c2.445,0.08,4.387,2.022,4.468,4.474
	c0.019,0.568-0.337,0.999-0.853,1.028c-0.551,0.031-0.936-0.331-0.981-0.925c-0.106-1.395-0.892-2.371-2.155-2.667
	c-0.184-0.043-0.377-0.059-0.566-0.074c-0.617-0.049-0.98-0.428-0.945-0.991C25.58,19.281,26.006,18.933,26.582,18.951z"/>
</svg>
